<?xml version="1.0" encoding="utf-8"?>
<!-- Generator: $$$/GeneralStr/196=Adobe Illustrator 27.6.0, SVG Export Plug-In . SVG Version: 6.00 Build 0)  -->
<svg version="1.1" id="Layer_1" xmlns="http://www.w3.org/2000/svg" xmlns:xlink="http://www.w3.org/1999/xlink" x="0px" y="0px"
	 viewBox="0 0 50 50" style="enable-background:new 0 0 50 50;" xml:space="preserve">
<path d="M37,7.3c-1.6-1.6-3.4-2.8-5.5-3.7c-2-0.8-4.2-1.3-6.5-1.3c-2.3,0-4.5,0.5-6.5,1.3c-2.1,0.9-4,2.1-5.5,3.7
	c-3.1,3.1-5,7.3-5,12c0,1.1,0.1,2.3,0.3,3.4c0.2,1.1,0.6,2.2,1,3.2c0.8,1.8,1.8,3.3,2.9,4.8c0.1,0.2,0.2,0.3,0.5,0.7l11.1,15.6
	c0.3,0.4,0.7,0.6,1.2,0.6c0.4,0,0.9-0.2,1.2-0.6l11.1-15.6c0.3-0.4,0.4-0.6,0.5-0.7c1.1-1.5,2.1-3,2.9-4.8c0.4-1,0.8-2.1,1-3.2
	c0.2-1.1,0.3-2.2,0.3-3.4C42,14.6,40.1,10.4,37,7.3z M25,25c-3.6,0-6.6-2.9-6.6-6.6s2.9-6.6,6.6-6.6s6.6,2.9,6.6,6.6S28.6,25,25,25z
	"/>
</svg>
