<?xml version="1.0" encoding="utf-8"?>
<!-- Generator: $$$/GeneralStr/196=Adobe Illustrator 27.6.0, SVG Export Plug-In . SVG Version: 6.00 Build 0)  -->
<svg version="1.1" id="圖層_1" xmlns="http://www.w3.org/2000/svg" xmlns:xlink="http://www.w3.org/1999/xlink" x="0px" y="0px"
	 viewBox="0 0 96 96" style="enable-background:new 0 0 96 96;" xml:space="preserve">
<path d="M0,42c0,23.2,18.8,42,42,42c9,0,17.8-3,25-8.5l18.7,18.7c0,0,0,0,0,0c2.3,2.3,6.1,2.3,8.5,0c2.3-2.3,2.3-6.1,0-8.5L75.5,67
	C81,59.8,84,51,84,42C84,18.8,65.2,0,42,0C18.8,0,0,18.8,0,42z M12,42c0-16.6,13.4-30,30-30s30,13.4,30,30S58.6,72,42,72
	C25.4,72,12,58.6,12,42z"/>
</svg>
