<?xml version="1.0" encoding="utf-8"?>
<!-- Generator: $$$/GeneralStr/196=Adobe Illustrator 27.6.0, SVG Export Plug-In . SVG Version: 6.00 Build 0)  -->
<svg version="1.1" id="圖層_1" xmlns="http://www.w3.org/2000/svg" xmlns:xlink="http://www.w3.org/1999/xlink" x="0px" y="0px"
	 viewBox="0 0 14.3 13.4" style="enable-background:new 0 0 14.3 13.4;" xml:space="preserve">
<style type="text/css">
	.st0{clip-path:url(#SVGID_00000142137487024355650080000002281092554233542305_);fill:#FFFFFF;}
</style>
<g>
	<defs>
		<path id="SVGID_1_" d="M1.6,8.1v4.5c0,0.5,0.4,0.9,0.9,0.9h3.4V9.6c0-0.2,0.2-0.4,0.4-0.4h1.8c0.2,0,0.4,0.2,0.4,0.4v3.8h3.4h0
			c0.5,0,0.9-0.4,0.9-0.9V8.1L7.2,2.5L1.6,8.1z M7.2,0C7,0,6.8,0.1,6.7,0.2L0.2,6.7C0.1,6.8,0,7,0,7.2c0,0.4,0.3,0.7,0.7,0.7
			c0.2,0,0.4-0.1,0.5-0.2l6-6l6,6c0.1,0.1,0.3,0.2,0.5,0.2c0.4,0,0.7-0.3,0.7-0.7c0-0.2-0.1-0.4-0.2-0.5L7.6,0.2
			C7.5,0.1,7.4,0,7.2,0z"/>
	</defs>
	<use xlink:href="#SVGID_1_"  style="overflow:visible;fill:#FFFFFF;"/>
	<clipPath id="SVGID_00000132070809770617061780000009774689230715541634_">
		<use xlink:href="#SVGID_1_"  style="overflow:visible;"/>
	</clipPath>
	
		<rect y="0" style="clip-path:url(#SVGID_00000132070809770617061780000009774689230715541634_);fill:#FFFFFF;" width="14.3" height="13.4"/>
</g>
</svg>
