<?xml version="1.0" encoding="utf-8"?>
<!-- Generator: $$$/GeneralStr/196=Adobe Illustrator 27.6.0, SVG Export Plug-In . SVG Version: 6.00 Build 0)  -->
<svg version="1.1" id="圖層_1" xmlns="http://www.w3.org/2000/svg" xmlns:xlink="http://www.w3.org/1999/xlink" x="0px" y="0px"
	 viewBox="0 0 50 50" style="enable-background:new 0 0 50 50;" xml:space="preserve">
<style type="text/css">
	.st0{clip-path:url(#SVGID_00000111902868949091755650000002325776275562656953_);}
</style>
<g>
	<defs>
		<path id="SVGID_1_" d="M13.2,28.8c-3.3,1.2-6.2,3-8,5.7c-0.3,0.5-0.5,1.1-0.5,1.7v0.1v9.3c0,1.7,1.4,3.1,3.1,3.1H25h17.1
			c1.7,0,3.1-1.4,3.1-3.1v-9.4c0-0.7-0.2-1.3-0.6-1.8c-1.8-2.7-4.6-4.5-7.9-5.7c-3.7-1.4-8-1.9-11.8-1.9
			C21.3,26.9,17,27.4,13.2,28.8 M25,1.3c-6.2,0-11.3,5-11.3,11.3s5,11.3,11.3,11.3s11.3-5,11.3-11.3S31.2,1.3,25,1.3z"/>
	</defs>
	<use xlink:href="#SVGID_1_"  style="overflow:visible;"/>
	<clipPath id="SVGID_00000066512800233733358920000004410496984434536329_">
		<use xlink:href="#SVGID_1_"  style="overflow:visible;"/>
	</clipPath>
	
		<rect x="4.7" y="1.3" style="clip-path:url(#SVGID_00000066512800233733358920000004410496984434536329_);" width="40.5" height="47.4"/>
</g>
</svg>
