<?xml version="1.0" encoding="utf-8"?>
<!-- Generator: $$$/GeneralStr/196=Adobe Illustrator 27.6.0, SVG Export Plug-In . SVG Version: 6.00 Build 0)  -->
<svg version="1.1" id="圖層_1" xmlns="http://www.w3.org/2000/svg" xmlns:xlink="http://www.w3.org/1999/xlink" x="0px" y="0px"
	 viewBox="0 0 50 50" style="enable-background:new 0 0 50 50;" xml:space="preserve">
<style type="text/css">
	.st0{fill-rule:evenodd;clip-rule:evenodd;fill:#424142;}
</style>
<path class="st0" d="M25.4,4C14.8,4,9.1,11.4,9.1,20.5c0,9.1,12.7,23.7,12.7,23.7c2,2.3,5.3,2.3,7.3,0c0,0,12.7-14.6,12.7-23.7
	C41.7,11.4,36.8,4,25.4,4z M25.4,30.7c-6,0-10.9-4.9-10.9-11c0-6.1,4.9-11,10.9-11c6,0,10.9,4.9,10.9,11
	C36.2,25.8,31.4,30.7,25.4,30.7z"/>
</svg>
