<?xml version="1.0" encoding="utf-8"?>
<!-- Generator: $$$/GeneralStr/196=Adobe Illustrator 27.6.0, SVG Export Plug-In . SVG Version: 6.00 Build 0)  -->
<svg version="1.1" id="Layer_1" xmlns="http://www.w3.org/2000/svg" xmlns:xlink="http://www.w3.org/1999/xlink" x="0px" y="0px"
	 viewBox="0 0 50 50" style="enable-background:new 0 0 50 50;" xml:space="preserve">
<path d="M7.8,42.3l-1.1-7.9c0-0.1,0-0.2,0-0.2c0-0.2,0.1-0.4,0.1-0.6c0.1-0.2,0.3-0.4,0.6-0.5l8-4c0.4-0.2,0.8-0.2,1.1,0.1l4,2.5
	c2-1.1,4.3-2.9,6.3-4.9c2-2,3.8-4.3,4.9-6.3l-2.5-4c-0.2-0.3-0.2-0.7-0.1-1.1l4-8c0.1-0.2,0.3-0.4,0.5-0.6c0.2-0.1,0.4-0.1,0.6-0.1
	c0.1,0,0.2,0,0.2,0l7.9,1.1c0.6,0,1.1,0.5,1.1,1.1c0,7.9-4,16-9.9,22.4c-0.8,0.8-1.6,1.6-2.4,2.4c-6.3,5.8-14.3,9.6-22.1,9.6
	C8.3,43.4,7.8,42.9,7.8,42.3z"/>
</svg>
