<?xml version="1.0" encoding="utf-8"?>
<!-- Generator: $$$/GeneralStr/196=Adobe Illustrator 27.6.0, SVG Export Plug-In . SVG Version: 6.00 Build 0)  -->
<svg version="1.1" id="Layer_1" xmlns="http://www.w3.org/2000/svg" xmlns:xlink="http://www.w3.org/1999/xlink" x="0px" y="0px"
	 viewBox="0 0 50 50" style="enable-background:new 0 0 50 50;" xml:space="preserve">
<g>
	<path d="M43.1,3.4h-4.3v4.3c0,0.9-0.7,1.4-1.4,1.4c-0.7,0-1.4-0.6-1.4-1.4V3.4H12.8v4.3c0,0.9-0.7,1.4-1.4,1.4
		c-0.7,0-1.4-0.6-1.4-1.4V3.4H5.6c-2.2,0-3.8,1.9-3.8,4.3v5.2H48V7.7C48,5.2,45.4,3.4,43.1,3.4z M1.8,15.9v26.4
		c0,2.6,1.6,4.3,3.9,4.3h37.5c2.3,0,4.9-1.9,4.9-4.3V15.9L1.8,15.9z M14.7,40.1h-3.5c-0.6,0-1.2-0.4-1.2-1.2v-3.6
		c0-0.6,0.4-1.2,1.2-1.2h3.6c0.6,0,1.2,0.4,1.2,1.2V39C15.8,39.7,15.4,40.1,14.7,40.1L14.7,40.1z M14.7,27.2h-3.5
		c-0.6,0-1.2-0.4-1.2-1.2v-3.6c0-0.6,0.4-1.2,1.2-1.2h3.6c0.6,0,1.2,0.4,1.2,1.2V26C15.8,26.7,15.4,27.2,14.7,27.2L14.7,27.2z
		 M26.2,40.1h-3.6c-0.6,0-1.2-0.4-1.2-1.2v-3.6c0-0.6,0.4-1.2,1.2-1.2h3.6c0.6,0,1.2,0.4,1.2,1.2V39C27.4,39.7,26.9,40.1,26.2,40.1z
		 M26.2,27.2h-3.6c-0.6,0-1.2-0.4-1.2-1.2v-3.6c0-0.6,0.4-1.2,1.2-1.2h3.6c0.6,0,1.2,0.4,1.2,1.2V26C27.4,26.7,26.9,27.2,26.2,27.2z
		 M37.8,40.1h-3.6c-0.6,0-1.2-0.4-1.2-1.2v-3.6c0-0.6,0.4-1.2,1.2-1.2h3.6c0.6,0,1.2,0.4,1.2,1.2V39C38.9,39.7,38.5,40.1,37.8,40.1z
		 M37.8,27.2h-3.6c-0.6,0-1.2-0.4-1.2-1.2v-3.6c0-0.6,0.4-1.2,1.2-1.2h3.6c0.6,0,1.2,0.4,1.2,1.2V26C38.9,26.7,38.5,27.2,37.8,27.2z
		"/>
</g>
</svg>
