<?xml version="1.0" encoding="utf-8"?>
<!-- Generator: $$$/GeneralStr/196=Adobe Illustrator 27.6.0, SVG Export Plug-In . SVG Version: 6.00 Build 0)  -->
<svg version="1.1" id="圖層_1" xmlns="http://www.w3.org/2000/svg" xmlns:xlink="http://www.w3.org/1999/xlink" x="0px" y="0px"
	 viewBox="0 0 279.5 329.9" style="enable-background:new 0 0 279.5 329.9;" xml:space="preserve">
<style type="text/css">
	.st0{fill:#8BC782;}
	.st1{fill:url(#SVGID_1_);}
	.st2{fill:url(#SVGID_00000136383025590040741050000004029950770374272155_);}
	.st3{fill:url(#SVGID_00000067925628235633216960000001132889575776793764_);}
	.st4{fill:url(#SVGID_00000013165322926523335220000016846846041777473937_);}
	.st5{fill:url(#SVGID_00000168089066855232734080000005994528303296987287_);}
	.st6{fill:url(#SVGID_00000142897056898324550600000015171815432786651048_);}
</style>
<g>
	<circle class="st0" cx="138.5" cy="114.1" r="16.1"/>
	<linearGradient id="SVGID_1_" gradientUnits="userSpaceOnUse" x1="93.975" y1="60.3911" x2="170.2686" y2="135.7042">
		<stop  offset="0" style="stop-color:#F5A200"/>
		<stop  offset="2.057133e-02" style="stop-color:#F49D00"/>
		<stop  offset="0.1309" style="stop-color:#F0843F"/>
		<stop  offset="0.2433" style="stop-color:#EC6C57"/>
		<stop  offset="0.3559" style="stop-color:#EA5565"/>
		<stop  offset="0.4689" style="stop-color:#E8416D"/>
		<stop  offset="0.5822" style="stop-color:#E72E71"/>
		<stop  offset="0.6964" style="stop-color:#E61E72"/>
		<stop  offset="0.8125" style="stop-color:#E61673"/>
	</linearGradient>
	<path class="st1" d="M123.3,28.5L77.4,74.4c-8.4,8.4-8.4,22.1,0,30.6c8.4,8.4,22.1,8.4,30.6,0l30.6-30.6l-15.2-15.2
		C114.9,50.6,114.9,36.9,123.3,28.5"/>
	
		<linearGradient id="SVGID_00000004513984861566260180000013811198493071567494_" gradientUnits="userSpaceOnUse" x1="3331.5378" y1="35.6714" x2="3235.9133" y2="131.2958" gradientTransform="matrix(-1 0 0 1 3462.0747 0)">
		<stop  offset="4.750000e-02" style="stop-color:#8F82BC"/>
		<stop  offset="0.5223" style="stop-color:#E62E8B"/>
	</linearGradient>
	<path style="fill:url(#SVGID_00000004513984861566260180000013811198493071567494_);" d="M169.2,104.9c8.4,8.4,22.1,8.4,30.6,0l0,0
		c8.4-8.4,8.4-22.1,0-30.6l-45.9-45.9c-8.4-8.4-22.1-8.4-30.6,0l0,0c-8.4,8.4-8.4,22.1,0,30.6L169.2,104.9z"/>
</g>
<g>
	
		<linearGradient id="SVGID_00000104681889534347020310000017906519401745577374_" gradientUnits="userSpaceOnUse" x1="120.3777" y1="141.132" x2="82.1279" y2="179.3817">
		<stop  offset="5.000000e-03" style="stop-color:#8BC782"/>
		<stop  offset="0.108" style="stop-color:#6FC2A1;stop-opacity:0.9969"/>
		<stop  offset="0.2245" style="stop-color:#4DBCBB;stop-opacity:0.9934"/>
		<stop  offset="0.3481" style="stop-color:#1AB8CE;stop-opacity:0.9897"/>
		<stop  offset="0.4791" style="stop-color:#00B4DC;stop-opacity:0.9857"/>
		<stop  offset="0.6209" style="stop-color:#00B1E6;stop-opacity:0.9814"/>
		<stop  offset="0.7813" style="stop-color:#00B0EB;stop-opacity:0.9766"/>
		<stop  offset="1" style="stop-color:#00AFEC;stop-opacity:0.97"/>
	</linearGradient>
	<path style="fill:url(#SVGID_00000104681889534347020310000017906519401745577374_);" d="M123.4,199.4c-8.4-8.4-8.4-22.1,0-30.6
		l15.2-15.2l-30.7-30.7c-8.4-8.4-22.1-8.4-30.6,0c-8.4,8.4-8.4,22.1,0,30.6l45.9,45.9"/>
	
		<linearGradient id="SVGID_00000005949178791726296900000014289812318634341280_" gradientUnits="userSpaceOnUse" x1="2241.4551" y1="130.1012" x2="2145.8306" y2="225.7256" gradientTransform="matrix(1 0 0 1 -2048.8108 0)">
		<stop  offset="0" style="stop-color:#F5A200"/>
		<stop  offset="2.057133e-02" style="stop-color:#F49D00"/>
		<stop  offset="0.1309" style="stop-color:#F0843F"/>
		<stop  offset="0.2433" style="stop-color:#EC6C57"/>
		<stop  offset="0.3559" style="stop-color:#EA5565"/>
		<stop  offset="0.4689" style="stop-color:#E8416D"/>
		<stop  offset="0.5822" style="stop-color:#E72E71"/>
		<stop  offset="0.6964" style="stop-color:#E61E72"/>
		<stop  offset="0.8125" style="stop-color:#E61673"/>
	</linearGradient>
	<path style="fill:url(#SVGID_00000005949178791726296900000014289812318634341280_);" d="M153.9,199.4c-8.4,8.4-22.1,8.4-30.6,0
		l0,0c-8.4-8.4-8.4-22.1,0-30.6l45.9-45.9c8.4-8.4,22.1-8.4,30.6,0l0,0c8.4,8.4,8.4,22.1,0,30.6L153.9,199.4z"/>
	<g>
		
			<linearGradient id="SVGID_00000124884158177311559150000006547272732702015898_" gradientUnits="userSpaceOnUse" x1="227.5222" y1="156.3808" x2="189.2725" y2="194.6305">
			<stop  offset="0" style="stop-color:#4A4B9D"/>
			<stop  offset="3.276867e-02" style="stop-color:#4A50A0;stop-opacity:0.999"/>
			<stop  offset="0.2914" style="stop-color:#4E7BBA;stop-opacity:0.9913"/>
			<stop  offset="0.5266" style="stop-color:#519BCD;stop-opacity:0.9842"/>
			<stop  offset="0.7305" style="stop-color:#55B1D9;stop-opacity:0.9781"/>
			<stop  offset="0.8951" style="stop-color:#58BEDF;stop-opacity:0.9731"/>
			<stop  offset="1" style="stop-color:#59C3E1;stop-opacity:0.97"/>
		</linearGradient>
		<path style="fill:url(#SVGID_00000124884158177311559150000006547272732702015898_);" d="M245.7,168.8l-45.9-45.9
			c8.4,8.4,8.4,22.1,0,30.6l-15.3,15.3l30.6,30.6c8.4,8.4,22.1,8.4,30.6,0C254.1,190.9,254.1,177.2,245.7,168.8z"/>
	</g>
	<g>
		<g>
			
				<linearGradient id="SVGID_00000176727608464052074450000011603946302925023159_" gradientUnits="userSpaceOnUse" x1="86.8883" y1="143.9616" x2="10.3968" y2="220.4531">
				<stop  offset="0" style="stop-color:#FFE67A"/>
				<stop  offset="0.3452" style="stop-color:#F7B86D"/>
				<stop  offset="0.6238" style="stop-color:#F19361"/>
				<stop  offset="0.7634" style="stop-color:#EF845C"/>
			</linearGradient>
			<path style="fill:url(#SVGID_00000176727608464052074450000011603946302925023159_);" d="M77.3,153.5c-8.4-8.4-8.4-22.1,0-30.6
				l-45.9,45.9c-8.4,8.4-8.4,22.1,0,30.6c8.4,8.4,22.1,8.4,30.6,0l30.6-30.6L77.3,153.5z"/>
		</g>
	</g>
</g>
</svg>
