<?xml version="1.0" encoding="utf-8"?>
<!-- Generator: $$$/GeneralStr/196=Adobe Illustrator 27.6.0, SVG Export Plug-In . SVG Version: 6.00 Build 0)  -->
<svg version="1.1" id="分離模式" xmlns="http://www.w3.org/2000/svg" xmlns:xlink="http://www.w3.org/1999/xlink" x="0px"
	 y="0px" viewBox="0 0 238.4 38.6" style="enable-background:new 0 0 238.4 38.6;" xml:space="preserve">
<style type="text/css">
	.st0{fill:#FFA568;}
	.st1{fill:#F05714;}
	.st2{fill:#4E5D66;}
	.st3{fill:#87AF7A;}
	.st4{fill:#E9E1CE;}
	.st5{fill:#AA8501;}
</style>
<path class="st0" d="M141.9,9.6c-3.9,0.2-7.3,3.2-7.3,7.3v2.4c0,3.8,3.4,7.5,7.3,7.3c4-0.2,7.3-3.2,7.3-7.3v-2.4
	C149.2,13.1,145.8,9.5,141.9,9.6z"/>
<path class="st1" d="M180.2,10.8c-9.4,0-9.4,14.6,0,14.6C189.5,25.4,189.5,10.8,180.2,10.8z"/>
<path class="st2" d="M19.3,11.8h-1.2c-3.8,0-7.5,3.4-7.3,7.3c0.2,4,3.2,7.3,7.3,7.3h1.2c3.8,0,7.5-3.4,7.3-7.3
	C26.4,15.2,23.4,11.8,19.3,11.8z"/>
<path class="st3" d="M60.9,10.8c-9.4,0-9.4,14.6,0,14.6C70.3,25.4,70.3,10.8,60.9,10.8z"/>
<path class="st4" d="M96.2,9.8c-9.4,0-9.4,14.6,0,14.6C105.6,24.4,105.6,9.8,96.2,9.8z"/>
<path class="st5" d="M218.4,11.8c-9.4,0-9.4,14.6,0,14.6C227.8,26.4,227.8,11.8,218.4,11.8z"/>
</svg>
