<?xml version="1.0" encoding="utf-8"?>
<!-- Generator: $$$/GeneralStr/196=Adobe Illustrator 27.6.0, SVG Export Plug-In . SVG Version: 6.00 Build 0)  -->
<svg version="1.1" id="分離模式" xmlns="http://www.w3.org/2000/svg" xmlns:xlink="http://www.w3.org/1999/xlink" x="0px"
	 y="0px" viewBox="0 0 716 485" style="enable-background:new 0 0 716 485;" xml:space="preserve">
<style type="text/css">
	.st0{fill:#87AF7A;}
	.st1{fill:#4E5D66;}
	.st2{fill:#FFA568;}
	.st3{fill:#F05714;}
	.st4{fill:#E9E1CE;}
</style>
<g>
	<path class="st0" d="M272.5,51.2c-4.7,0-4.7,7.3,0,7.3S277.2,51.2,272.5,51.2z"/>
	<path class="st1" d="M458.2,57.3c-2,0.1-3.7,1.6-3.7,3.7v0.6c0,1.9,1.7,3.8,3.7,3.7c2-0.1,3.7-1.6,3.7-3.7V61
		C461.9,59.1,460.2,57.2,458.2,57.3z"/>
	<path class="st2" d="M441.3,407.1h-1.2c-1.9,0-3.8,1.7-3.7,3.7c0.1,2,1.6,3.7,3.7,3.7h1.2c1.9,0,3.8-1.7,3.7-3.7
		C444.9,408.7,443.4,407.1,441.3,407.1z"/>
	<path class="st3" d="M196,249.9c-4.7,0-4.7,7.3,0,7.3C200.6,257.3,200.8,249.9,196,249.9z"/>
	<path class="st1" d="M54.6,208.2H54c-1.9,0-3.8,1.7-3.7,3.7s1.6,3.7,3.7,3.7h0.6c1.9,0,3.8-1.7,3.7-3.7S56.6,208.2,54.6,208.2z"/>
	<path class="st2" d="M103.3,73.5h-0.6c-1.9,0-3.8,1.7-3.7,3.7s1.6,3.7,3.7,3.7h0.6c1.9,0,3.8-1.7,3.7-3.7S105.3,73.5,103.3,73.5z"
		/>
	<path class="st4" d="M371,102.9c-4.7,0-4.7,7.3,0,7.3C375.6,110.3,375.6,102.9,371,102.9z"/>
	<path class="st0" d="M297,372.1c-4.7,0-4.7,7.3,0,7.3S301.7,372.1,297,372.1z"/>
	<path class="st4" d="M499,294.2c-4.7,0-4.7,7.3,0,7.3S503.7,294.2,499,294.2z"/>
	<path class="st1" d="M658.3,410.8h-0.6c-1.9,0-3.8,1.7-3.7,3.7s1.6,3.7,3.7,3.7h0.6c1.9,0,3.8-1.7,3.7-3.7S660.4,410.8,658.3,410.8
		z"/>
	<path class="st3" d="M682,290c-2,0.1-3.7,1.6-3.7,3.7v0.4c0,1.9,1.7,3.8,3.7,3.7s3.7-1.6,3.7-3.7v-0.4
		C685.7,291.7,684,289.9,682,290z"/>
	<path class="st1" d="M591.3,157.9c-0.4-0.8-1.3-1.5-2.2-1.7s-2-0.2-2.8,0.4c-0.4,0.2-0.7,0.5-1,0.9c-1.1,0.9-1.8,2.5-1.3,3.9
		c0.6,1.9,2.5,3,4.5,2.6c0.2,0,0.3-0.1,0.5-0.1c1.2-0.3,2.3-1.4,2.6-2.6c0-0.2,0.1-0.3,0.1-0.5C591.9,159.8,591.8,158.8,591.3,157.9
		z"/>
	<path class="st1" d="M182,400.7c-2,0.1-3.7,1.6-3.7,3.7v0.6c0,1.9,1.7,3.8,3.7,3.7c2-0.1,3.7-1.6,3.7-3.7v-0.6
		C185.7,402.5,184,400.6,182,400.7z"/>
	<path class="st4" d="M103,414.5c-2,0.1-3.7,1.6-3.7,3.7v0.6c0,1.9,1.7,3.8,3.7,3.7c2-0.1,3.7-1.6,3.7-3.7v-0.6
		C106.6,416.3,104.9,414.4,103,414.5z"/>
	<path class="st0" d="M67,325.9c-4.7,0-4.7,7.3,0,7.3S71.7,325.9,67,325.9z"/>
	<path class="st2" d="M289.8,176.3h-1.2c-1.9,0-3.8,1.7-3.7,3.7c0.1,2,1.6,3.7,3.7,3.7h1.2c1.9,0,3.8-1.7,3.7-3.7
		C293.4,177.9,291.9,176.3,289.8,176.3z"/>
	<path class="st0" d="M662,77.2c-4.7,0-4.7,7.3,0,7.3S666.7,77.2,662,77.2z"/>
</g>
</svg>
