<?xml version="1.0" encoding="utf-8"?>
<!-- Generator: $$$/GeneralStr/196=Adobe Illustrator 27.6.0, SVG Export Plug-In . SVG Version: 6.00 Build 0)  -->
<svg version="1.1" id="分離模式" xmlns="http://www.w3.org/2000/svg" xmlns:xlink="http://www.w3.org/1999/xlink" x="0px"
	 y="0px" viewBox="0 0 3524.6 1884" style="enable-background:new 0 0 3524.6 1884;" xml:space="preserve">
<style type="text/css">
	.st0{fill:#FFFFFF;}
</style>
<g>
	<path class="st0" d="M247.1,1317.1c-7.3,0-7.3,11.5,0,11.5C254.4,1328.6,254.5,1317.1,247.1,1317.1z"/>
	<path class="st0" d="M1239.3,1386.4c-7.3,0-7.3,11.5,0,11.5S1246.8,1386.4,1239.3,1386.4z"/>
	<path class="st0" d="M912.7,529c-7.4,0-7.4,11.5,0,11.5C920.1,540.5,920.1,529,912.7,529z"/>
	<path class="st0" d="M1551.7,341.1c-7.3,0-7.3,11.5,0,11.5C1559,352.6,1559.2,341.1,1551.7,341.1z"/>
	<path class="st0" d="M1494.4,1033.9c-7.4,0-7.4,11.5,0,11.5C1501.8,1045.4,1501.8,1033.9,1494.4,1033.9z"/>
	<path class="st0" d="M1774.3,584.1c-7.4,0-7.4,11.5,0,11.5C1781.6,595.6,1781.6,584.1,1774.3,584.1z"/>
	<path class="st0" d="M1929.4,443.2c-7.4,0-7.4,11.5,0,11.5C1936.8,454.7,1936.8,443.2,1929.4,443.2z"/>
	<path class="st0" d="M1941.7,984.3c-7.4,0-7.4,11.5,0,11.5C1949.1,995.7,1949.1,984.3,1941.7,984.3z"/>
	<path class="st0" d="M1845.7,1298.7c-7.4,0-7.4,11.5,0,11.5C1853,1310.2,1853.2,1298.7,1845.7,1298.7z"/>
	<path class="st0" d="M2312.1,1345.1c-7.3,0-7.3,11.5,0,11.5C2319.4,1356.6,2319.4,1345.1,2312.1,1345.1z"/>
	<path class="st0" d="M2070.3,1556c-7.4,0-7.4,11.5,0,11.5S2077.7,1556,2070.3,1556z"/>
	<path class="st0" d="M1133.2,1637.6c-7.3,0-7.3,11.5,0,11.5S1140.6,1637.6,1133.2,1637.6z"/>
	<path class="st0" d="M1006.5,1560c-7.4,0-7.4,11.5,0,11.5C1014,1571.5,1014,1560,1006.5,1560z"/>
	<path class="st0" d="M1659.9,1682.5c-7.4,0-7.4,11.5,0,11.5C1667.3,1694,1667.3,1682.5,1659.9,1682.5z"/>
	<path class="st0" d="M2056,1753.9c-7.4,0-7.4,11.5,0,11.5C2063.4,1765.4,2063.4,1753.9,2056,1753.9z"/>
	<path class="st0" d="M2837.9,1692.7c-7.3,0-7.3,11.5,0,11.5S2845.4,1692.7,2837.9,1692.7z"/>
	<path class="st0" d="M2533.7,1633.5c-7.3,0-7.3,11.5,0,11.5C2541.2,1645,2541.2,1633.5,2533.7,1633.5z"/>
	<path class="st0" d="M2762.4,1151.7c-7.3,0-7.3,11.5,0,11.5C2769.8,1163.2,2769.8,1151.7,2762.4,1151.7z"/>
	<path class="st0" d="M2431.6,504.4c-7.4,0-7.4,11.5,0,11.5C2439.1,515.9,2439.1,504.4,2431.6,504.4z"/>
	<path class="st0" d="M2364.3,210.4c-7.4,0-7.4,11.5,0,11.5C2371.7,221.9,2371.7,210.4,2364.3,210.4z"/>
	<path class="st0" d="M3281,467.7c-7.3,0-7.3,11.5,0,11.5C3288.4,479.2,3288.4,467.7,3281,467.7z"/>
	<path class="st0" d="M3078.9,510.6c-7.3,0-7.3,11.5,0,11.5C3086.2,522.1,3086.2,510.6,3078.9,510.6z"/>
	<path class="st0" d="M3519.1,1071.5c-7.3,0-7.3,11.5,0,11.5C3526.4,1083,3526.4,1071.5,3519.1,1071.5z"/>
	<path class="st0" d="M3238.2,1308.9c-7.3,0-7.3,11.5,0,11.5S3245.5,1308.9,3238.2,1308.9z"/>
	<path class="st0" d="M3234,1600.9c-7.3,0-7.3,11.5,0,11.5S3241.4,1600.9,3234,1600.9z"/>
	<path class="st0" d="M579.9,522.8c-7.3,0-7.3,11.5,0,11.5S587.2,522.8,579.9,522.8z"/>
	<path class="st0" d="M457.4,322.8c-7.3,0-7.3,11.5,0,11.5C464.8,334.2,464.8,322.8,457.4,322.8z"/>
	<path class="st0" d="M5.5,791.6c-7.3,0-7.3,11.5,0,11.5C12.9,803,12.9,791.6,5.5,791.6z"/>
	<path class="st0" d="M1099.4,118.6c-7.3,0-7.3,11.5,0,11.5C1106.9,130.1,1106.9,118.6,1099.4,118.6z"/>
	<path class="st0" d="M1384.3,437.1c-7.3,0-7.3,11.5,0,11.5C1391.7,448.6,1391.7,437.1,1384.3,437.1z"/>
	<path class="st0" d="M1078.1,1003.7c-7.4,0-7.4,11.5,0,11.5C1085.4,1015.2,1085.4,1003.7,1078.1,1003.7z"/>
	<path class="st0" d="M266.5,1028.1c-7.3,0-7.3,11.5,0,11.5S273.8,1028.1,266.5,1028.1z"/>
	<path class="st0" d="M199.1,1533.4c-7.3,0-7.3,11.5,0,11.5C206.5,1544.9,206.5,1533.4,199.1,1533.4z"/>
	<path class="st0" d="M560.5,1741.8c-7.3,0-7.3,11.5,0,11.5S567.8,1741.8,560.5,1741.8z"/>
	<path class="st0" d="M1477.7,1350.8c-14.8,0-14.8,23,0,23C1492.6,1373.8,1492.6,1350.8,1477.7,1350.8z"/>
	<path class="st0" d="M1430.1,841.4c-14.8,0-14.8,23,0,23C1444.8,864.4,1444.9,841.4,1430.1,841.4z"/>
	<path class="st0" d="M737.1,560c-14.8,0-14.8,23,0,23C751.8,583,751.9,560,737.1,560z"/>
	<path class="st0" d="M794.9,1186.3c-14.8,0-14.8,23,0,23C809.7,1209.2,809.7,1186.3,794.9,1186.3z"/>
	<path class="st0" d="M375.7,1209.2c-14.8,0-14.8,23,0,23S390.5,1209.2,375.7,1209.2z"/>
	<path class="st0" d="M1882.4,1380.7c-14.8,0-14.8,23,0,23S1897.3,1380.7,1882.4,1380.7z"/>
	<path class="st0" d="M2437.3,1077.3c-14.8,0-14.8,23,0,23C2452,1100.3,2452,1077.3,2437.3,1077.3z"/>
	<path class="st0" d="M1921.3,641.7c-14.8,0-14.8,23,0,23C1936.1,664.7,1936.1,641.7,1921.3,641.7z"/>
	<path class="st0" d="M2448.3,730.3c-14.8,0-14.8,23,0,23C2463,753.3,2463,730.3,2448.3,730.3z"/>
	<path class="st0" d="M2560.3,415c-14.8,0-14.8,23,0,23S2575.1,415,2560.3,415z"/>
	<path class="st0" d="M2646,1362.3c-14.8,0-14.8,23,0,23S2660.9,1362.3,2646,1362.3z"/>
	<path class="st0" d="M2917.5,1425.6c-14.8,0-14.8,23,0,23C2932.3,1448.6,2932.3,1425.6,2917.5,1425.6z"/>
	<path class="st0" d="M3478.2,1425.6c-14.8,0-14.8,23,0,23C3492.9,1448.6,3492.9,1425.6,3478.2,1425.6z"/>
	<path class="st0" d="M3240.1,909.2c-14.8,0-14.8,23,0,23S3254.9,909.2,3240.1,909.2z"/>
	<path class="st0" d="M3313.6,643.8c-14.8,0-14.8,23,0,23S3328.4,643.8,3313.6,643.8z"/>
	<path class="st0" d="M3005.4,718.9c-14.8,0-14.8,23,0,23C3020.2,741.8,3020.2,718.9,3005.4,718.9z"/>
	<path class="st0" d="M2776.7,641.7c-14.8,0-14.8,23,0,23C2791.4,664.7,2791.5,641.7,2776.7,641.7z"/>
	<path class="st0" d="M2301.1,411c-14.8,0-14.8,23,0,23C2315.8,433.9,2315.8,411,2301.1,411z"/>
	<path class="st0" d="M1419.1,533.5c-14.8,0-14.8,23,0,23C1433.8,556.5,1433.8,533.5,1419.1,533.5z"/>
	<path class="st0" d="M1191.2,484.1c-14.8,0-14.8,23,0,23C1205.9,507.1,1206,484.1,1191.2,484.1z"/>
	<path class="st0" d="M430.8,774.3c-14.8,0-14.8,23,0,23C445.6,797.3,445.6,774.3,430.8,774.3z"/>
	<path class="st0" d="M410.4,1409.3c-14.8,0-14.8,23,0,23C425.2,1432.3,425.2,1409.3,410.4,1409.3z"/>
	<path class="st0" d="M876,1550.2c-14.8,0-14.8,23,0,23C890.7,1573.2,890.8,1550.2,876,1550.2z"/>
	<path class="st0" d="M1676.6,992.2c-14.8,0-14.8,23,0,23S1691.4,992.2,1676.6,992.2z"/>
	<path class="st0" d="M3019.1,1088.8c-14.8,0-14.8,23,0,23C3033.8,1111.7,3033.9,1088.8,3019.1,1088.8z"/>
</g>
</svg>
