<svg width="40" height="40" viewBox="0 0 40 40" fill="none" xmlns="http://www.w3.org/2000/svg">
<mask id="mask0_14703_17943" style="mask-type:alpha" maskUnits="userSpaceOnUse" x="0" y="0" width="40" height="40">
<rect width="40" height="40" fill="#D9D9D9"/>
</mask>
<g mask="url(#mask0_14703_17943)">
<path d="M15.0123 27.1845C13.884 27.1845 12.9361 26.7991 12.1686 26.0283C11.4011 25.2575 11.0173 24.3079 11.0173 23.1795C11.0173 22.0512 11.4029 21.1033 12.174 20.3358C12.9448 19.5683 13.8944 19.1845 15.0228 19.1845C16.1508 19.1845 17.0986 19.5701 17.8661 20.3412C18.6336 21.112 19.0173 22.0616 19.0173 23.19C19.0173 24.318 18.6319 25.2658 17.8611 26.0333C17.0903 26.8008 16.1407 27.1845 15.0123 27.1845ZM8.12401 37.0483C7.14984 37.0483 6.31734 36.7029 5.62651 36.012C4.9354 35.3209 4.58984 34.4884 4.58984 33.5145V9.20745C4.58984 8.2294 4.9354 7.39329 5.62651 6.69912C6.31734 6.00523 7.14984 5.65829 8.12401 5.65829H10.3882V2.88037H13.6136V5.65829H26.3853V2.88037H29.6107V5.65829H31.8748C32.8532 5.65829 33.6894 6.00523 34.3836 6.69912C35.0775 7.39329 35.4244 8.2294 35.4244 9.20745V33.5145C35.4244 34.4884 35.0775 35.3209 34.3836 36.012C33.6894 36.7029 32.8532 37.0483 31.8748 37.0483H8.12401ZM8.12401 33.5145H31.8748V16.4445H8.12401V33.5145ZM8.12401 13.8054H31.8748V9.20745H8.12401V13.8054Z" fill="white"/>
</g>
</svg>
