<?xml version="1.0" encoding="utf-8"?>
<!-- Generator: $$$/GeneralStr/196=Adobe Illustrator 27.6.0, SVG Export Plug-In . SVG Version: 6.00 Build 0)  -->
<svg version="1.1" id="Layer_1" xmlns="http://www.w3.org/2000/svg" xmlns:xlink="http://www.w3.org/1999/xlink" x="0px" y="0px"
	 viewBox="0 0 566.9 566.9" style="enable-background:new 0 0 566.9 566.9;" xml:space="preserve">
<style type="text/css">
	.st0{fill:#FAE0BD;}
	.st1{fill:#FBF1CF;}
	.st2{fill:#8DE1CE;}
	.st3{fill:#D1C4E9;}
	.st4{fill:#A2DDFD;}
	.st5{fill:#7ACEFA;}
	.st6{fill:#B0ADE2;}
	.st7{fill:#4E5660;}
</style>
<g>
	<path class="st0" d="M465,524.1c0,23.9,19.7,43.3,43.9,42.8c23.3-0.6,41.6-20.4,41.6-43.7V147.5c0-27.6-22.4-50.1-50.1-50.1H179.4
		c-27.6,0-50.1,22.4-50.1,50.1v139.1L465,524.1z"/>
	<g>
		<path class="st1" d="M16.4,50.1v474c0,23.6,19.1,42.8,42.8,42.8h448.6c-23.6,0-42.8-19.1-42.8-42.8v-474C465,22.4,442.6,0,414.9,0
			H66.5C38.8,0,16.4,22.4,16.4,50.1L16.4,50.1z"/>
	</g>
	<path class="st2" d="M320.2,418.9h64.3c9.4,0,17.1-7.6,17.1-17.1v-64.3c0-9.4-7.6-17.1-17.1-17.1h-64.3c-9.4,0-17.1,7.6-17.1,17.1
		v64.3C303.1,411.3,310.8,418.9,320.2,418.9z"/>
	<path class="st0" d="M132.6,0H66.5C38.8,0,16.4,22.4,16.4,50.1v474c0,23.6,19.1,42.8,42.8,42.8h157.5
		C114.5,502.8,132.2,299.1,132.6,0z"/>
	<path class="st3" d="M264.4,566.9c-23.6,0-42.8-19.1-42.8-42.8v-41.4c0-8.2-6.6-14.6-14.6-14.6H88.5c-8.2,0-14.6,6.6-14.6,14.6
		v41.4c0,23.6,19.1,42.8,42.8,42.8H264.4z"/>
	<path class="st4" d="M110.4,67.9H371c17.6,0,31.8,14.3,31.8,31.8v116.5c0,17.6-14.3,31.8-31.8,31.8H110.4
		c-17.6,0-31.8-14.3-31.8-31.8V99.7C78.6,82.2,92.8,67.9,110.4,67.9z"/>
	<path class="st5" d="M132.2,67.9h-21.8c-17.6,0-31.8,14.3-31.8,31.8v116.5c0,17.6,14.3,31.8,31.8,31.8h20.9
		C130.9,193.7,131.7,133.5,132.2,67.9z"/>
	<path class="st6" d="M116.7,566.9h100.1c-31.8-19.9-52-53.2-64.7-98.8H88.5c-8.2,0-14.6,6.6-14.6,14.6v41.4
		C73.9,547.7,93.1,566.9,116.7,566.9z"/>
	<g>
		<path class="st7" d="M221.6,377.9H77.8c-4.6,0-8.3-3.7-8.3-8.3s3.7-8.3,8.3-8.3h143.8c4.6,0,8.3,3.7,8.3,8.3
			S226.2,377.9,221.6,377.9z"/>
		<path class="st7" d="M221.6,427H77.8c-4.6,0-8.3-3.7-8.3-8.3s3.7-8.3,8.3-8.3h143.8c4.6,0,8.3,3.7,8.3,8.3S226.2,427,221.6,427z"
			/>
		<path class="st7" d="M221.6,328.7H77.8c-4.6,0-8.3-3.7-8.3-8.3s3.7-8.3,8.3-8.3h143.8c4.6,0,8.3,3.7,8.3,8.3
			S226.2,328.7,221.6,328.7z"/>
		<path class="st7" d="M401.7,476.3h-98.6c-4.6,0-8.3-3.7-8.3-8.3c0-4.6,3.7-8.3,8.3-8.3h98.6c4.6,0,8.3,3.7,8.3,8.3
			C410,472.6,406.3,476.3,401.7,476.3z"/>
		<path class="st7" d="M401.7,525.5h-98.6c-4.6,0-8.3-3.7-8.3-8.3c0-4.6,3.7-8.3,8.3-8.3h98.6c4.6,0,8.3,3.7,8.3,8.3
			C410,521.8,406.3,525.5,401.7,525.5z"/>
	</g>
</g>
</svg>
