<svg width="41" height="41" viewBox="0 0 41 41" fill="none" xmlns="http://www.w3.org/2000/svg">
<mask id="mask0_14703_17937" style="mask-type:alpha" maskUnits="userSpaceOnUse" x="0" y="0" width="41" height="41">
<rect x="0.785156" y="0.0478516" width="40" height="40" fill="#D9D9D9"/>
</mask>
<g mask="url(#mask0_14703_17937)">
<path d="M12.2816 33.5623V15.0944C12.2816 14.1013 12.6216 13.2587 13.3016 12.5665C13.9814 11.8745 14.8139 11.5286 15.7991 11.5286H34.3C35.2922 11.5286 36.1318 11.872 36.8187 12.559C37.506 13.2462 37.8496 14.0859 37.8496 15.0781V28.5856L29.3371 37.0961H15.8158C14.8278 37.0961 13.9918 36.7541 13.3079 36.0702C12.6237 35.3861 12.2816 34.5501 12.2816 33.5623ZM3.78664 10.3819C3.61581 9.41383 3.80928 8.53564 4.36706 7.7473C4.92456 6.95897 5.69206 6.47494 6.66956 6.29522L24.8691 3.07647C25.8372 2.90564 26.7178 3.09453 27.5108 3.64314C28.3039 4.19147 28.7907 4.95439 28.9712 5.93189L29.48 8.88939H26.1521L25.6696 6.32564L7.06331 9.57397L9.64289 24.2244V31.2477C8.97873 31.1202 8.40928 30.8213 7.93456 30.3511C7.46012 29.8808 7.15956 29.2909 7.03289 28.5815L3.78664 10.3819ZM15.6271 14.874V33.7506H27.6812V26.9298H34.5041V14.874H15.6271Z" fill="white"/>
</g>
</svg>
