<?xml version="1.0" encoding="utf-8"?>
<!-- Generator: $$$/GeneralStr/196=Adobe Illustrator 27.6.0, SVG Export Plug-In . SVG Version: 6.00 Build 0)  -->
<svg version="1.1" id="Layer_1" xmlns="http://www.w3.org/2000/svg" xmlns:xlink="http://www.w3.org/1999/xlink" x="0px" y="0px"
	 viewBox="0 0 566.9 566.9" style="enable-background:new 0 0 566.9 566.9;" xml:space="preserve">
<style type="text/css">
	.st0{fill:#A4E7FF;}
	.st1{fill:#83DEFF;}
	.st2{fill:#62EDE6;}
	.st3{fill:#5FC4C1;}
	.st4{fill:#FFEF64;}
	.st5{fill:#FFE54E;}
	.st6{fill:#8DA1B2;}
</style>
<g>
	<g id="Image_2_">
		<g>
			<path class="st0" d="M191.9,371.4l91.5,18.4l205.8-41.5V98.4c0-11.4-9.3-20.7-20.7-20.7H204.6L98.4,224.6L191.9,371.4z"/>
			<path class="st1" d="M204.6,77.6H98.3c-11.4,0-20.7,9.3-20.7,20.7v249.9l114.3,23.1c-7-38.3-10.7-78.2-10.7-119.1
				C181.2,191.3,189.5,132.5,204.6,77.6z"/>
		</g>
		<g>
			<path class="st2" d="M225.4,489.3h243.1c11.4,0,20.7-9.3,20.7-20.7V348.3l-37.7-61.7c-9.9-16.1-33.2-16.6-43.6-0.9l-25,37.6
				c-8,12.1-25.6,12.4-34.1,0.6l-91.9-127.4c-15.5-26.1-48.3-32.1-71.7-17.8l-76.4,203L225.4,489.3z"/>
			<path class="st3" d="M185.3,179c-6.9,4.2-12.9,10.2-17.4,17.8L77.6,348.3v120.2c0,11.4,9.3,20.7,20.7,20.7h127.1
				c-28.3-71.7-44.2-152-44.2-236.9C181.2,227.4,182.6,202.9,185.3,179L185.3,179z"/>
		</g>
		<g>
			<path class="st4" d="M410,198.8c10.2-5.1,17-15.6,17-27.8c0-17.1-14-31.1-31.1-31.1c-0.9,0-1.8,0-2.7,0.1l-18.4,10l14.2,48.6
				L410,198.8L410,198.8z"/>
			<path class="st5" d="M388.7,160.6c0-7.5,1.6-14.6,4.6-20.7c-15.9,1.4-28.4,14.7-28.4,31c0,17.1,14,31.1,31.1,31.1
				c5.1,0,9.9-1.3,14.1-3.3C397.4,192.8,388.7,178,388.7,160.6z"/>
		</g>
	</g>
	<g>
		<g>
			<path class="st6" d="M18.2,119.6c-9.3,0-16.7-7.5-16.7-16.7V29.8v-1.9c0-8.1,6.6-14.7,14.7-14.7h1.9h71.2
				c9.3,0,16.7,7.5,16.7,16.7c0,9.3-7.5,16.7-16.7,16.7H41.2c-3.6,0-6.5,2.9-6.5,6.5V103C34.8,112.1,27.3,119.6,18.2,119.6z"/>
			<path class="st6" d="M106.9,537.1c0,9.3-7.5,16.7-16.7,16.7H17.1h-1.9c-8.1,0-14.7-6.6-14.7-14.7v-1.9v-71.2
				c0-9.3,7.5-16.7,16.7-16.7c9.3,0,16.7,7.5,16.7,16.7v48.1c0,3.6,2.9,6.5,6.5,6.5h49.9C99.5,520.4,106.9,527.9,106.9,537.1z"/>
		</g>
		<g>
			<path class="st6" d="M531.9,102.8V53c0-3.6-2.9-6.5-6.5-6.5h-48.1c-9.3,0-16.7-7.5-16.7-16.7c0-9.3,7.5-16.7,16.7-16.7h71.2h1.9
				c8.1,0,14.7,6.6,14.7,14.7v1.9v73.1c0,9.3-7.5,16.7-16.7,16.7C539.4,119.6,531.9,112.1,531.9,102.8z"/>
			<path class="st6" d="M476.5,520.4h50c3.6,0,6.5-2.9,6.5-6.5v-48.1c0-9.3,7.5-16.7,16.7-16.7s16.7,7.5,16.7,16.7V537v1.9
				c0,8.1-6.6,14.7-14.7,14.7h-1.9h-73.1c-9.3,0-16.7-7.5-16.7-16.7C459.9,527.9,467.4,520.4,476.5,520.4z"/>
		</g>
	</g>
</g>
</svg>
