<?xml version="1.0" encoding="utf-8"?>
<!-- Generator: $$$/GeneralStr/196=Adobe Illustrator 27.6.0, SVG Export Plug-In . SVG Version: 6.00 Build 0)  -->
<svg version="1.1" id="Layer_1" xmlns="http://www.w3.org/2000/svg" xmlns:xlink="http://www.w3.org/1999/xlink" x="0px" y="0px"
	 viewBox="0 0 566.9 566.9" style="enable-background:new 0 0 566.9 566.9;" xml:space="preserve">
<style type="text/css">
	.st0{fill:#BCA48A;}
	.st1{fill:#7BDFFC;}
	.st2{fill:#1ECDFA;}
	.st3{fill:#8DE1CE;}
	.st4{fill:#5FC4C1;}
	.st5{fill:#F0EDFF;}
	.st6{fill:#DCDBFF;}
	.st7{fill:#FBF1CF;}
	.st8{fill:#FAE0BD;}
	.st9{fill:#E8D4BC;}
	.st10{fill:#C7C7F9;}
</style>
<g>
	<g>
		<path class="st0" d="M63.2,104.9c52.6-11.1,52.1,70.7,44.5,135.7C99,289.8,45.3,335.8,0.1,319.9V182.5
			C0.2,144.3,27.2,112.3,63.2,104.9z"/>
		<path class="st1" d="M277.8,15.4l-132,20.3c-55.4,11-53.6,33.3-50.5,53.2l22.2,143.7c4.1,26.7,18.6,50.6,40.2,66.7
			C256.3,317.5,370.9,5.2,277.8,15.4L277.8,15.4z"/>
		<path class="st2" d="M145.7,35.6l-40.4,6.2c-27.9,4.3-47.1,30.4-42.8,58.4c1.3,8.7,21.6,140.1,21.6,140.3l44.8,42.9
			c9.3,9.1,19,14.2,28.8,15.9L124.5,85.3C121.5,65.4,130.4,46.5,145.7,35.6L145.7,35.6z"/>
		<path class="st0" d="M566.8,276.9v137.3c-18.3,46-147.1-30.9-126-79.3c19.1-65.3,42.4-146,81.4-129.4
			C548.5,218.4,566.8,245.5,566.8,276.9L566.8,276.9z"/>
		<path class="st3" d="M478.6,369.3l68.1-256.1c7.3-27.3-9-55.3-36.3-62.6L371.8,13.7c-57.4-14.9-59.3,6.9-64.3,25.6l-34.7,141.4
			l16.5,53.6l51.7,100.6L478.6,369.3z"/>
		<path class="st4" d="M371.8,13.7L327.3,1.9c-27.4-7.3-55.4,9.1-62.6,36.3l-8.2,30.7l-16.9,68.7l49.7,96.8l45.3-184
			C339.5,31.6,354.2,18.1,371.8,13.7z"/>
		<path class="st5" d="M369.6,68.8H232c-44.9,0-62.2,26.2-62.2,46.9v253.5h251V120.1C420.8,91.7,397.9,68.8,369.6,68.8z"/>
		<path class="st6" d="M232,68.8c-26.2,0-47,0-51.9,0c-28.3,0-51.2,22.9-51.2,51.2v249.2h74.1V115.7C203.1,95.2,214.9,77.2,232,68.8
			L232,68.8z"/>
		<path class="st7" d="M566.8,487.4v-73.1c0-43.6-35.3-79.3-79.3-79.3c-11.5,0-220.9,0-231.3,0c-19.9,0-38.1-11.6-46.4-29.9
			l-8.2-18.1c-12.5-27.6-40.2-46.5-72.6-46.5c-52.1,0.1-77.4,41.4-77.4,73.3v174c0,37.5,12.8,79.1,91.6,79.1h344.2
			C531.3,566.8,566.8,531.3,566.8,487.4L566.8,487.4z"/>
		<path class="st8" d="M86,487.7v-174c0-31.9,17.5-59.4,42.9-73.1c-21.4,0-12.7,0-49.5,0c-43.8,0-79.3,35.5-79.3,79.3v167.7
			c0,43.8,35.5,79.3,79.3,79.3h63.9C110.2,556.8,86,525.2,86,487.7z"/>
		<path class="st9" d="M154.7,343.1v-7.9c0-14.4-11.7-26.1-26.1-26.1H86.1c-24.1,4.1-34.4,51.9-0.1,60.1h42.6
			C143,369.3,154.7,357.6,154.7,343.1L154.7,343.1z"/>
		<path class="st0" d="M86.1,309.2h-8.3c-14.4,0-26.1,11.7-26.1,26.1v7.9c0,14.4,11.7,26.1,26.1,26.1H86
			C86.1,310.7,86,313.5,86.1,309.2L86.1,309.2z"/>
		<path class="st6" d="M369.3,146.1c4.8,0,8.6-3.9,8.6-8.6s-3.9-8.6-8.6-8.6H203.1c-13.5,5.8-13.5,11.4,0,17.2L369.3,146.1
			L369.3,146.1z"/>
		<path class="st10" d="M171.8,137.5c0,4.8,3.9,8.6,8.6,8.6h22.6V129h-22.6C175.7,128.9,171.8,132.8,171.8,137.5z"/>
		<path class="st6" d="M369.3,180.5H203.1c-17.5,5.8-17.6,11.5,0,17.2h166.2c4.8,0,8.6-3.9,8.6-8.6
			C377.9,184.2,374,180.5,369.3,180.5z"/>
		<path class="st10" d="M180.5,180.5c-4.8,0-8.6,3.9-8.6,8.6s3.9,8.6,8.6,8.6h22.6v-17.2L180.5,180.5L180.5,180.5z"/>
		<path class="st6" d="M369.3,249.1H249.1c-4.8,0-8.6-3.9-8.6-8.6s3.9-8.6,8.6-8.6h120.2c4.8,0,8.6,3.9,8.6,8.6
			C377.9,245.3,374,249.1,369.3,249.1z"/>
	</g>
</g>
</svg>
