<?xml version="1.0" encoding="utf-8"?>
<!-- Generator: $$$/GeneralStr/196=Adobe Illustrator 27.6.0, SVG Export Plug-In . SVG Version: 6.00 Build 0)  -->
<svg version="1.1" id="Layer_1" xmlns="http://www.w3.org/2000/svg" xmlns:xlink="http://www.w3.org/1999/xlink" x="0px" y="0px"
	 viewBox="0 0 566.9 566.9" style="enable-background:new 0 0 566.9 566.9;" xml:space="preserve">
<style type="text/css">
	.st0{fill:#E8D4BC;}
	.st1{fill:#BCA48A;}
	.st2{fill:#FBF1CF;}
	.st3{fill:#FAE0BD;}
	.st4{fill:#5FC4C1;}
</style>
<g>
	<path class="st0" d="M495.1,104H71.9c-23,0-40.1,21.4-34.9,43.8l52.3,226.7h388.4L530,147.8C535.1,125.4,518.1,104,495.1,104
		L495.1,104z"/>
	<path class="st1" d="M106,104H71.9c-23,0-40.1,21.4-34.9,43.8l52.3,226.7h34.1L71.1,147.8C66,125.4,83,104,106,104z"/>
	<path class="st2" d="M530.3,187.6H36.7c-23,0-40.1,21.4-34.9,43.8l52.3,226.7c7.6,33.2,37.2,56.7,71.2,56.7h316.3
		c34,0,63.6-23.5,71.2-56.7l52.3-226.7C570.3,209,553.3,187.6,530.3,187.6z"/>
	<path class="st3" d="M88.2,458.1L35.9,231.4c-5.2-22.4,11.8-43.8,34.9-43.8H36.7c-23,0-40.1,21.4-34.9,43.8l52.3,226.7
		c7.6,33.2,37.2,56.7,71.2,56.7h34.1C125.4,514.9,95.8,491.4,88.2,458.1z"/>
	<path class="st4" d="M175.3,267.3L275,370.1c4.6,4.7,12.4,4.7,17,0l99.7-102.8c7.3-7.5,2-20.1-8.5-20.1h-42.1V74.8
		c0-12.6-10.2-22.7-22.7-22.7h-69.5c-12.6,0-22.7,10.2-22.7,22.7v172.4H184C173.3,247.2,168,259.8,175.3,267.3L175.3,267.3z"/>
</g>
</svg>
