<?xml version="1.0" encoding="UTF-8"?><svg id="Layer_1" xmlns="http://www.w3.org/2000/svg" viewBox="0 0 437.35 451.35"><defs><style>.cls-1{fill:#f6ee86;}.cls-2{fill:#fbf1cf;}.cls-3{fill:#fae0bd;}.cls-4{fill:#83deff;}.cls-5{fill:#8da1b2;}.cls-6{fill:#8de1ce;}.cls-7{fill:#a4e7ff;}.cls-8{fill:#a2ddfd;}.cls-9{fill:#5fc4c1;}.cls-10{fill:#7acefa;}</style></defs><path class="cls-2" d="m373.53,451.35c35.24,0,63.81-28.57,63.81-63.81V114.85c0-44.18-35.82-80-80-80H80C35.82,34.85,0,70.67,0,114.85v272.68C0,422.78,28.57,451.35,63.81,451.35h309.72Z"/><path class="cls-3" d="m437.35,166.64H121.54c-5.93-61.19-4.53-96.25-4.53-113.56v-18.23h-37.01C35.82,34.85,0,70.67,0,114.85v272.68c0,35.24,28.57,63.81,63.81,63.81h196.43c-88.02-41.53-122.19-156.13-135.33-255.23h312.44v-29.47Z"/><path class="cls-6" d="m357.35,34.85H80C35.82,34.85,0,70.67,0,114.85v51.79h437.35v-51.79c0-44.18-35.82-80-80-80h0Z"/><path class="cls-9" d="m117.01,53.08v-18.23h-37.01C35.82,34.85,0,70.67,0,114.85v51.79h121.53c-5.93-61.19-4.53-96.25-4.53-113.56Z"/><path class="cls-7" d="m259,425.38c-5.82,0-11.57-1-17.1-2.96l-23.23-8.26-23.23,8.26c-5.53,1.97-11.28,2.96-17.1,2.96-13.64,0-26.95-5.64-36.51-15.47-9.65-9.92-14.75-23.02-14.37-36.89l.68-24.64-15.03-19.54c-10.25-13.32-13.27-30.82-8.07-46.8,5.19-15.98,17.92-28.37,34.04-33.12l23.65-6.97,13.94-20.33c9.5-13.86,25.21-22.14,42.02-22.14s32.51,8.28,42.02,22.14l13.94,20.33,23.65,6.97c16.12,4.75,28.85,17.13,34.04,33.12,5.19,15.98,2.18,33.48-8.07,46.8l-15.03,19.54.68,24.64c.38,13.87-4.72,26.97-14.37,36.89-9.56,9.83-22.87,15.47-36.51,15.47h0Z"/><path class="cls-4" d="m241.9,422.42c5.53,1.97,11.28,2.96,17.1,2.96,13.64,0,26.95-5.64,36.51-15.47,4.26-4.38,7.63-9.37,10.04-14.78-112.25-26.93-132.61-128.73-129.79-172.19l-13.03,19.01-23.65,6.97c-16.12,4.75-28.85,17.13-34.04,33.12-5.19,15.98-2.18,33.48,8.07,46.8l15.03,19.54-.68,24.64c-.38,13.87,4.72,26.97,14.37,36.89,9.56,9.83,22.87,15.46,36.51,15.46,5.82,0,11.57-1,17.1-2.96l23.23-8.26,23.23,8.26Z"/><path class="cls-1" d="m214.25,383.12l-29.1,10.35c-13.38,4.76-27.36-5.4-26.97-19.59l.85-30.87c.08-3.04-.88-6.01-2.73-8.42l-18.83-24.48c-8.66-11.25-3.32-27.69,10.3-31.7l29.62-8.73c2.91-.86,5.44-2.7,7.16-5.2l17.46-25.48c8.03-11.71,25.31-11.71,33.33,0l17.46,25.48c1.72,2.51,4.25,4.34,7.16,5.2l29.62,8.73c13.62,4.01,18.96,20.45,10.3,31.7l-18.83,24.48c-1.85,2.41-2.82,5.38-2.73,8.42l.85,30.87c.39,14.19-13.59,24.35-26.97,19.59l-29.1-10.35c-2.86-1.02-5.99-1.02-8.85,0h0Z"/><path class="cls-8" d="m216.6,349.01l-13.61,4.84c-6.26,2.22-12.8-2.53-12.62-9.17l.4-14.44c.04-1.42-.41-2.81-1.28-3.94l-8.81-11.45c-4.05-5.26-1.55-12.95,4.82-14.83l13.86-4.09c1.36-.4,2.55-1.26,3.35-2.43l8.17-11.92c3.75-5.48,11.84-5.48,15.59,0l8.17,11.92c.8,1.17,1.99,2.03,3.35,2.43l13.86,4.09c6.37,1.88,8.87,9.57,4.82,14.83l-8.81,11.45c-.87,1.13-1.32,2.52-1.28,3.94l.4,14.44c.18,6.64-6.36,11.39-12.62,9.17l-13.61-4.84c-1.34-.48-2.8-.48-4.14,0h0Z"/><path class="cls-10" d="m201.84,294.49c-.7.66-1.55,1.17-2.49,1.45l-13.86,4.09c-6.37,1.88-8.87,9.57-4.82,14.83l8.81,11.45c.87,1.13,1.32,2.52,1.28,3.94l-.4,14.44c-.18,6.64,6.36,11.39,12.62,9.17l13.61-4.84c1.34-.48,2.8-.48,4.14,0l13.61,4.84c4.59,1.63,9.32-.5,11.45-4.37-18.42-5.35-41.35-32.22-43.96-54.99h0Z"/><path class="cls-5" d="m126.45,72.69c-11.22,0-20.32-9.1-20.32-20.32V20.32c0-11.22,9.1-20.32,20.32-20.32s20.32,9.1,20.32,20.32v32.04c0,11.22-9.1,20.32-20.32,20.32Z"/><path class="cls-5" d="m218.67,72.69c-11.22,0-20.32-9.1-20.32-20.32V20.32c0-11.22,9.1-20.32,20.32-20.32s20.32,9.1,20.32,20.32v32.04c0,11.22-9.1,20.32-20.32,20.32Z"/><path class="cls-5" d="m310.9,72.69c11.22,0,20.32-9.1,20.32-20.32V20.32c0-11.22-9.1-20.32-20.32-20.32s-20.32,9.1-20.32,20.32v32.04c0,11.22,9.1,20.32,20.32,20.32Z"/></svg>