<?xml version="1.0" encoding="utf-8"?>
<!-- Generator: Adobe Illustrator 15.1.0, SVG Export Plug-In . SVG Version: 6.00 Build 0)  -->
<!DOCTYPE svg PUBLIC "-//W3C//DTD SVG 1.1//EN" "http://www.w3.org/Graphics/SVG/1.1/DTD/svg11.dtd">
<svg version="1.1" id="圖層_1" xmlns="http://www.w3.org/2000/svg" xmlns:xlink="http://www.w3.org/1999/xlink" x="0px" y="0px"
	 width="80px" height="80px" viewBox="0 0 80 80" enable-background="new 0 0 80 80" xml:space="preserve">
<title>w_sublist_hobear_bg</title>
<g>
	<g>
		<path fill="#36323F" d="M29.914,65.598c0,0-6.898,4.836-18.418-5.656l2.279-2.017c0,0,10.374,0.772,17.463,5.115L29.914,65.598z"
			/>
		<path fill="#36323F" d="M13.566,57.303l0.253,0.021c0.429,0.031,10.603,0.83,17.734,5.202l0.481,0.293l-1.654,3.189l-0.119,0.085
			c-0.298,0.208-7.43,4.99-19.174-5.704l-0.497-0.453L13.566,57.303z M30.438,63.268c-6.246-3.609-14.883-4.568-16.457-4.718
			l-1.577,1.396c5.524,4.869,9.852,6.039,12.54,6.151c2.518,0.103,4.089-0.683,4.509-0.925L30.438,63.268z"/>
		<path fill="#F7B52C" d="M27.692,67.311c-1.75-1.196-2.202-3.588-1.006-5.341c1.197-1.75,3.588-2.201,5.341-1.005
			c1.752,1.196,2.201,3.587,1.004,5.34C31.835,68.056,29.443,68.506,27.692,67.311"/>
		<path fill="#36323F" d="M26.189,61.631c1.384-2.025,4.155-2.548,6.177-1.164c2.025,1.381,2.548,4.154,1.165,6.179
			c-1.383,2.025-4.154,2.548-6.178,1.164C25.327,66.427,24.806,63.654,26.189,61.631 M32.532,65.964
			c1.007-1.475,0.626-3.493-0.847-4.499c-1.474-1.009-3.493-0.628-4.5,0.847c-1.006,1.476-0.627,3.492,0.849,4.5
			C29.507,67.818,31.526,67.438,32.532,65.964"/>
		<path fill="#F7B52C" d="M18.354,65.788c-1.751-1.195-2.202-3.586-1.004-5.34c1.196-1.751,3.586-2.203,5.337-1.004
			c1.753,1.196,2.204,3.586,1.006,5.339C22.498,66.535,20.106,66.986,18.354,65.788"/>
		<path fill="#36323F" d="M16.85,60.108c1.384-2.025,4.155-2.547,6.179-1.165c2.025,1.383,2.547,4.156,1.164,6.182
			c-1.383,2.024-4.154,2.547-6.179,1.163C15.989,64.905,15.467,62.133,16.85,60.108 M23.195,64.442
			c1.007-1.475,0.626-3.493-0.847-4.5c-1.474-1.008-3.493-0.627-4.5,0.848c-1.005,1.475-0.626,3.493,0.848,4.499
			C20.171,66.296,22.188,65.915,23.195,64.442"/>
		<path fill="#36323F" d="M9.417,60.913l0.964-3.758c0,0,9.536,0.555,9.103,4.415C19.047,65.43,16.396,66.81,9.417,60.913"/>
		<path fill="#36323F" d="M10.413,56.625c0.278,0.017,6.837,0.425,8.937,2.915c0.525,0.622,0.749,1.325,0.662,2.09
			c-0.254,2.265-1.243,3.562-2.814,3.775c-1.905,0.26-4.562-1.078-8.124-4.085l-0.255-0.216l1.156-4.507L10.413,56.625z
			 M10.014,60.721c3.912,3.252,5.984,3.776,7.041,3.632c1.09-0.147,1.706-1.111,1.901-2.843c0.053-0.467-0.084-0.889-0.418-1.284
			c-1.388-1.649-5.717-2.335-7.752-2.51L10.014,60.721"/>
		<path fill="#F7B52C" d="M5.545,54.301c-0.731-0.401-1.65-0.134-2.053,0.6c-1.754,3.448,2.866,2.778,3.598,3.181l1.549,1.363
			c0.731,0.401,1.649,0.133,2.051-0.599c0.4-0.731,0.133-1.65-0.599-2.052L5.545,54.301z"/>
		<path fill="#36323F" d="M2.36,56.239c0-0.499,0.156-1.048,0.485-1.694c0.289-0.527,0.766-0.909,1.343-1.077
			c0.577-0.169,1.185-0.104,1.712,0.188l4.547,2.492c0.721,0.396,1.17,1.152,1.169,1.976c0,0.376-0.096,0.747-0.278,1.077
			c-0.596,1.087-1.966,1.487-3.055,0.892l-0.071-0.04l-1.505-1.325c-0.15-0.031-0.463-0.061-0.7-0.082
			C4.731,58.526,2.357,58.307,2.36,56.239 M9.055,58.828c0.363,0.159,0.794,0.016,0.989-0.337c0.201-0.367,0.055-0.853-0.308-1.051
			l-4.546-2.492c-0.182-0.1-0.391-0.123-0.589-0.065c-0.2,0.06-0.363,0.191-0.451,0.352c-0.26,0.511-0.315,0.83-0.315,1.008
			c0,0.601,0.845,0.797,2.307,0.932c0.579,0.055,0.998,0.094,1.302,0.26l0.071,0.039L9.055,58.828"/>
		<path fill="#F7B52C" d="M9.763,61.019C9.102,61.59,3.336,64.2,1.654,62.071c-3.139-3.974,2.991-3.852,2.991-3.852
			c2.683-0.538,3.824-3.722,6.516-0.294C11.161,57.926,12.665,59.386,9.763,61.019"/>
		<path fill="#36323F" d="M-0.076,60.111c0.001-0.594,0.231-1.132,0.666-1.558c1.126-1.103,3.408-1.171,3.971-1.17
			c0.682-0.154,1.279-0.537,1.858-0.905c1.382-0.882,3.098-1.977,5.375,0.9c0.16,0.175,0.593,0.723,0.592,1.515
			c-0.002,1.057-0.729,2.005-2.16,2.823c-0.813,0.594-4.374,2.229-6.93,1.987c-1.017-0.096-1.789-0.472-2.298-1.117
			C0.275,61.671-0.077,60.86-0.076,60.111L-0.076,60.111 M10.715,58.892c0-0.208-0.138-0.365-0.137-0.367v0.001l-0.074-0.085
			c-1.354-1.723-1.854-1.405-3.187-0.555C6.62,58.331,5.83,58.835,4.81,59.038l-0.09,0.018l-0.09-0.001
			c-0.694-0.013-2.309,0.142-2.871,0.695c-0.116,0.111-0.164,0.218-0.165,0.364c0,0.2,0.092,0.65,0.716,1.438
			c0.208,0.265,0.575,0.427,1.092,0.483c2.007,0.221,5.338-1.262,5.814-1.649l0.064-0.054l0.073-0.041
			C10.217,59.804,10.714,59.295,10.715,58.892"/>
	</g>
	<g>
		<path fill="#36323F" d="M60.875,54.204c0,0,8.405,0.54,10.829,15.934l-3.038,0.146c0,0-7.612-7.092-10.425-14.914L60.875,54.204z"
			/>
		<path fill="#36323F" d="M68.438,70.901l-0.186-0.177c-0.316-0.292-7.753-7.278-10.581-15.149l-0.191-0.528l3.284-1.457l0.147,0.01
			c0.363,0.022,8.918,0.756,11.391,16.444l0.104,0.666L68.438,70.901z M59.008,55.693c2.613,6.725,8.752,12.873,9.887,13.974
			l2.104-0.102c-1.266-7.254-3.91-10.874-5.938-12.642c-1.898-1.657-3.617-2.026-4.094-2.101L59.008,55.693z"/>
		<path fill="#F7B52C" d="M61.933,53.936c1.268,1.7,0.92,4.109-0.776,5.379c-1.7,1.271-4.108,0.922-5.38-0.777
			c-1.271-1.699-0.921-4.106,0.778-5.377C58.252,51.89,60.66,52.238,61.933,53.936"/>
		<path fill="#36323F" d="M61.517,59.798c-1.965,1.469-4.755,1.065-6.222-0.898c-1.469-1.963-1.067-4.755,0.897-6.223
			c1.963-1.469,4.755-1.066,6.222,0.898C63.885,55.539,63.48,58.331,61.517,59.798 M56.918,53.645
			c-1.431,1.067-1.724,3.102-0.656,4.53c1.069,1.431,3.104,1.725,4.531,0.655c1.431-1.07,1.724-3.103,0.652-4.532
			C60.38,52.869,58.346,52.575,56.918,53.645"/>
		<path fill="#F7B52C" d="M69.529,60.365c1.081,1.825,0.475,4.182-1.353,5.262c-1.826,1.078-4.184,0.475-5.26-1.354
			c-1.081-1.826-0.477-4.183,1.353-5.262C66.094,57.932,68.452,58.537,69.529,60.365"/>
		<path fill="#36323F" d="M68.484,66.146c-2.111,1.248-4.842,0.546-6.092-1.564c-1.245-2.112-0.543-4.844,1.567-6.091
			c2.111-1.247,4.842-0.546,6.092,1.566C71.297,62.168,70.595,64.899,68.484,66.146 M64.576,59.531
			c-1.537,0.908-2.05,2.899-1.14,4.435c0.907,1.537,2.896,2.05,4.432,1.143c1.539-0.911,2.049-2.899,1.142-4.437
			C68.101,59.136,66.11,58.624,64.576,59.531"/>
		<path fill="#36323F" d="M73.377,70.38l-3.155,2.256c0,0-6.948-6.556-4.133-9.233C68.904,60.727,71.822,61.376,73.377,70.38"/>
		<path fill="#36323F" d="M69.855,73.022c-0.202-0.191-4.963-4.722-4.968-7.979c-0.002-0.815,0.28-1.495,0.835-2.025
			c1.651-1.569,3.244-1.928,4.584-1.082c1.626,1.026,2.8,3.76,3.594,8.354l0.057,0.328l-3.783,2.706L69.855,73.022z M72.796,70.143
			c-0.904-5.007-2.157-6.739-3.057-7.31c-0.931-0.588-2.021-0.245-3.284,0.957c-0.341,0.322-0.506,0.733-0.505,1.251
			c0.001,2.154,2.876,5.465,4.322,6.906L72.796,70.143"/>
		<path fill="#F7B52C" d="M65.631,71.808c-0.594,0.588-0.596,1.545-0.008,2.138c2.805,2.665,3.478-1.954,4.073-2.543l1.748-1.096
			c0.594-0.585,0.598-1.542,0.01-2.137c-0.585-0.594-1.543-0.597-2.137-0.011L65.631,71.808z"/>
		<path fill="#36323F" d="M66.583,75.414c-0.478-0.145-0.96-0.449-1.487-0.949c-0.421-0.425-0.651-0.994-0.648-1.593
			c0.002-0.604,0.238-1.165,0.667-1.588l3.684-3.649c0.586-0.578,1.438-0.794,2.228-0.558c0.36,0.108,0.689,0.306,0.954,0.572
			c0.871,0.882,0.865,2.309-0.016,3.182l-0.061,0.059l-1.695,1.065c-0.076,0.134-0.192,0.427-0.28,0.646
			C69.449,73.792,68.565,76.005,66.583,75.414 M70.972,69.732c0.257-0.303,0.241-0.757-0.039-1.043
			c-0.298-0.298-0.803-0.296-1.097-0.005l-3.683,3.648c-0.148,0.146-0.229,0.339-0.233,0.545c0.001,0.207,0.082,0.402,0.21,0.532
			c0.414,0.396,0.706,0.537,0.877,0.589c0.575,0.172,1.002-0.583,1.551-1.947c0.217-0.539,0.372-0.929,0.618-1.173l0.06-0.057
			L70.972,69.732"/>
		<path fill="#F7B52C" d="M73.272,69.678c0.359,0.796,1.22,7.068-1.3,8.072c-4.704,1.877-2.84-3.965-2.84-3.965
			c0.25-2.724-2.479-4.725,1.572-6.328C70.705,67.457,72.534,66.431,73.272,69.678"/>
		<path fill="#36323F" d="M69.6,78.852c-0.567-0.171-1.019-0.545-1.302-1.083c-0.737-1.393-0.152-3.599,0.009-4.139
			c0.046-0.697-0.149-1.379-0.338-2.041c-0.449-1.573-1.015-3.531,2.396-4.895c0.211-0.104,0.858-0.364,1.619-0.135
			c1.012,0.302,1.714,1.27,2.091,2.875c0.338,0.945,0.894,4.825-0.069,7.207c-0.381,0.948-0.961,1.58-1.724,1.887
			c-1.083,0.431-1.962,0.538-2.68,0.323H69.6 M71.504,68.159c-0.198-0.061-0.389,0.028-0.391,0.028h0.002l-0.103,0.047
			c-2.037,0.806-1.875,1.375-1.44,2.895c0.23,0.797,0.487,1.698,0.392,2.732l-0.007,0.093l-0.028,0.085
			c-0.208,0.662-0.524,2.254-0.152,2.951c0.076,0.143,0.162,0.217,0.303,0.26c0.192,0.058,0.65,0.097,1.584-0.274
			c0.312-0.125,0.571-0.432,0.775-0.911c0.781-1.859,0.309-5.476,0.072-6.043l-0.033-0.076l-0.019-0.083
			C72.238,68.896,71.891,68.275,71.504,68.159"/>
	</g>
	<g>
		<defs>
			<path id="SVGID_1_" d="M32.059,59.444c-0.104,0.112-0.196,0.23-0.27,0.345c-0.333,0.5-0.589,1.181-0.781,2.014
				c-0.874,3.767-0.46,11.032,0.507,17.588c0.002,0.018,0.007,0.025,0.008,0.043c0.694,4.651,1.594,5.339,2.437,6.871
				c1.023,1.863,5.902,1.78,11.592,0.729c0.382-0.07,0.766-0.144,1.149-0.228c1.632-0.331,3.297-0.732,4.934-1.181
				c6.762-1.851,13.4-3.031,14.254-4.756l0.005-0.007c0.934-1.892-0.367-6.365-1.161-9.293l-0.007-0.017
				c-0.052-0.152-0.112-0.302-0.174-0.459c-2.286-6.164-5.668-12.44-7.935-15.358c-0.48-0.615-0.922-1.101-1.308-1.418
				c-0.26-0.216-0.612-0.387-1.035-0.513c-3.379-1.024-11.874,0.576-17.479,2.841C34.635,57.517,32.904,58.487,32.059,59.444"/>
		</defs>
		<clipPath id="SVGID_2_">
			<use xlink:href="#SVGID_1_"  overflow="visible"/>
		</clipPath>
		<defs>
			<filter id="Adobe_OpacityMaskFilter" filterUnits="userSpaceOnUse" x="22.107" y="47.8" width="47.382" height="46.27">
				<feColorMatrix  type="matrix" values="1 0 0 0 0  0 1 0 0 0  0 0 1 0 0  0 0 0 1 0"/>
			</filter>
		</defs>
		<mask maskUnits="userSpaceOnUse" x="22.107" y="47.8" width="47.382" height="46.27" id="SVGID_3_">
			<g filter="url(#Adobe_OpacityMaskFilter)">
				
					<linearGradient id="SVGID_4_" gradientUnits="userSpaceOnUse" x1="-578.4722" y1="455.0801" x2="-577.745" y2="455.0801" gradientTransform="matrix(45.9263 -10.6844 -10.6844 -45.9263 31459.623 14794.0918)">
					<stop  offset="0" style="stop-color:#FFFFFF"/>
					<stop  offset="0.005" style="stop-color:#FFFFFF"/>
					<stop  offset="1" style="stop-color:#F7F7F7"/>
				</linearGradient>
				<polygon clip-path="url(#SVGID_2_)" fill="url(#SVGID_4_)" points="22.107,56.808 60.82,47.8 69.489,85.063 30.775,94.069 				
					"/>
			</g>
		</mask>
		
			<linearGradient id="SVGID_5_" gradientUnits="userSpaceOnUse" x1="-578.4722" y1="455.0801" x2="-577.745" y2="455.0801" gradientTransform="matrix(45.9263 -10.6844 -10.6844 -45.9263 31459.623 14794.0918)">
			<stop  offset="0" style="stop-color:#69BC82"/>
			<stop  offset="0.005" style="stop-color:#69BC82"/>
			<stop  offset="0.2843" style="stop-color:#42B1A2"/>
			<stop  offset="0.5905" style="stop-color:#1EA7C0"/>
			<stop  offset="0.8401" style="stop-color:#08A1D2"/>
			<stop  offset="1" style="stop-color:#009FD9"/>
		</linearGradient>
		<polygon clip-path="url(#SVGID_2_)" mask="url(#SVGID_3_)" fill="url(#SVGID_5_)" points="22.107,56.808 60.82,47.8 
			69.489,85.063 30.775,94.069 		"/>
	</g>
	<g opacity="0.5">
		<g>
			<defs>
				<polygon id="SVGID_6_" points="37.22,93.722 68.538,81.078 58.238,55.422 26.918,68.065 				"/>
			</defs>
			<clipPath id="SVGID_7_">
				<use xlink:href="#SVGID_6_"  overflow="visible"/>
			</clipPath>
			<path clip-path="url(#SVGID_7_)" fill="#EAC23D" d="M64.767,71.596c0.06,0.156,0.118,0.31,0.174,0.463l0.005,0.018
				c0.413,1.129-0.234-0.611,0.061,0.401c0.03,0.12,0.064,0.243,0.099,0.365c0.758,2.898,1.522,6.771,0.872,8.077
				c-0.856,1.736-7.528,2.923-14.318,4.781c-0.89,0.24-1.787,0.471-2.681,0.678c-0.507,0.125-1.012,0.235-1.517,0.339
				c-0.394,0.078-0.777,0.153-1.157,0.228C40.583,88,35.677,88.086,34.633,86.218c-0.852-1.531-1.765-2.217-2.489-6.873
				l-0.001-0.016c0.257-0.051,0.517-0.104,0.776-0.166c1.968-0.43,3.884-1.079,3.884-1.079s-1.176-10.596-0.279-13.127
				c0.457-1.271,4.786-2.838,9.09-3.852c3.928-0.933,7.914-1.427,9.014-0.825c2.273,1.246,6.789,11.119,7.253,12.14
				c0.024,0.052,0.035,0.075,0.035,0.075S63.149,72.009,64.767,71.596"/>
		</g>
	</g>
	<path fill="#F0B42B" d="M64.807,71.574l0.007,0.014c0.475,1.303-0.122-0.261,0.192,0.889c0.03,0.122,0.064,0.244,0.099,0.366
		c0.758,2.897,1.522,6.771,0.872,8.077c-0.856,1.735-7.528,2.924-14.318,4.781c-0.89,0.24-1.787,0.471-2.681,0.678
		c-0.761,0.19-1.52,0.359-2.275,0.516c-0.388,0.076-0.77,0.151-1.157,0.228c-5.713,1.051-10.617,1.139-11.641-0.734
		c-0.846-1.533-1.748-2.234-2.44-6.902c0.225-0.042,0.449-0.088,0.68-0.141c0.261-0.055,0.52-0.117,0.775-0.182
		c1.708-0.413,3.208-0.923,3.208-0.923s-1.103-10.61-0.191-13.146c0.482-1.329,5.193-2.979,9.679-3.988
		c3.728-0.843,7.385-1.263,8.428-0.688c2.366,1.311,7.196,12.235,7.196,12.235s0.233-0.093,0.643-0.233
		C62.529,72.191,63.606,71.848,64.807,71.574"/>
	<g opacity="0.5">
		<g>
			<defs>
				<polygon id="SVGID_8_" points="36.875,93.771 68.527,80.992 55.983,49.784 24.333,62.562 				"/>
			</defs>
			<clipPath id="SVGID_9_">
				<use xlink:href="#SVGID_8_"  overflow="visible"/>
			</clipPath>
			<path clip-path="url(#SVGID_9_)" fill="#EAC23D" d="M56.617,55.735c-0.482-0.615-0.924-1.1-1.308-1.417
				c-0.26-0.218-1.033-0.514-1.033-0.514s-16.169,5.063-22.217,5.639c-0.104,0.113-0.197,0.232-0.271,0.346
				c-0.331,0.498-0.588,1.18-0.781,2.015c5.23,0.186,18.064-3.067,24.213-5.482c2.02,3.217,4.531,8.436,6.214,13.486l0.005,0.014
				c1.521,4.544,1.337,5.725,0.365,7.529c-0.877,1.649-6.866,4.157-13.451,5.951c-1.59,0.436-3.21,0.823-4.795,1.149
				c-0.376,0.08-0.745,0.152-1.117,0.22c-3.586,0.667-6.838,0.945-8.942,0.572c0.152,0.429,0.306,0.786,0.461,1.062
				c1.022,1.864,5.901,1.779,11.592,0.729c0.382-0.07,0.764-0.144,1.149-0.227c1.632-0.332,3.297-0.733,4.932-1.182
				c6.764-1.852,13.402-3.031,14.256-4.756c0.943-1.886-0.784-8.026-1.156-9.3l-0.007-0.016
				C62.438,65.246,58.938,58.722,56.617,55.735"/>
		</g>
	</g>
	<path fill="#000013" d="M58.083,73.085c0.396,1.165-0.17,2.339-1.271,2.596c0,0-3.442,1.953-7.696,2.942
		c-4.255,0.99-8.213,0.758-8.213,0.758c-1.102,0.256-2.134-0.545-2.299-1.765c0,0-1.183-2.802-1.589-5.94
		c-0.38-2.949-0.131-4.836-0.131-4.836c-0.13-0.958,0.77-1.952,1.715-2.171c0,0,3.438-1.671,6.617-2.412
		c3.183-0.739,7.071-0.772,7.071-0.772c0.947-0.221,1.963,0.328,2.275,1.242c0,0,1.187,1.286,2.138,4.016
		C57.709,69.641,58.083,73.085,58.083,73.085"/>
	<g>
		<defs>
			<path id="SVGID_10_" d="M39.041,64.904c-0.897,0.208-1.741,1.15-1.614,2.057c0,0-0.226,1.785,0.148,4.566
				c0.399,2.95,1.525,5.574,1.525,5.574c0.163,1.138,1.135,1.886,2.169,1.646c0,0,3.717,0.209,7.704-0.718
				c3.988-0.927,7.225-2.756,7.225-2.756c1.032-0.24,1.569-1.338,1.203-2.431c0,0-0.328-3.234-1.262-5.967
				c-0.883-2.584-1.998-3.804-1.998-3.804c-0.29-0.868-1.247-1.39-2.145-1.182c0,0-3.682,0.028-6.693,0.729
				c-1.466,0.343-2.986,0.892-4.163,1.367C39.896,64.487,39.041,64.904,39.041,64.904"/>
		</defs>
		<clipPath id="SVGID_11_">
			<use xlink:href="#SVGID_10_"  overflow="visible"/>
		</clipPath>
		
			<linearGradient id="SVGID_12_" gradientUnits="userSpaceOnUse" x1="-591.9482" y1="465.7852" x2="-591.2214" y2="465.7852" gradientTransform="matrix(-54.4635 21.9266 21.9266 54.4635 -42384.7852 -12326.7715)">
			<stop  offset="0" style="stop-color:#76CAF2"/>
			<stop  offset="1" style="stop-color:#000013"/>
		</linearGradient>
		<polygon clip-path="url(#SVGID_11_)" fill="url(#SVGID_12_)" points="59.389,74.527 40.775,82.021 34.543,66.545 53.158,59.053 		
			"/>
	</g>
	<g opacity="0.4">
		<g>
			<defs>
				
					<rect id="SVGID_13_" x="37.252" y="62.415" transform="matrix(-0.9273 0.3743 -0.3743 -0.9273 117.7395 118.3691)" width="20.244" height="16.408"/>
			</defs>
			<clipPath id="SVGID_14_">
				<use xlink:href="#SVGID_13_"  overflow="visible"/>
			</clipPath>
			<g clip-path="url(#SVGID_14_)">
				<defs>
					<path id="SVGID_15_" d="M45.934,62.37c0,0-2.09,0.735-1.23,5.375c0.955,5.146,3.399,8.331,1.192,9.335
						c-2.227,1.011-6.1,1.806-6.1,1.806s2.883,0.56,8.569-0.472c5.716-1.035,8.34-3.074,8.34-3.074s2.028,0.774,0.686-4.684
						L56.54,66.28c0,0-1.677-4.196-2.732-4.517c-1.043-0.318-3.769-0.1-4.235-0.038C49.105,61.789,46.437,62.021,45.934,62.37"/>
				</defs>
				<clipPath id="SVGID_16_">
					<use xlink:href="#SVGID_15_"  overflow="visible"/>
				</clipPath>
				
					<linearGradient id="SVGID_17_" gradientUnits="userSpaceOnUse" x1="-579.4072" y1="471.6016" x2="-578.6801" y2="471.6016" gradientTransform="matrix(6.2034 33.8993 33.8993 -6.2034 -12348.4082 22620.0801)">
					<stop  offset="0" style="stop-color:#63C5F1"/>
					<stop  offset="1" style="stop-color:#000A20"/>
				</linearGradient>
				<polygon clip-path="url(#SVGID_16_)" fill="url(#SVGID_17_)" points="57.161,58.463 61.01,79.504 37.988,83.717 34.139,62.676 
									"/>
			</g>
		</g>
	</g>
	<g>
		<defs>
			<path id="SVGID_18_" d="M45.274,62.511c3.125-0.726,6.992-0.766,7.029-0.766l0.063-0.008c0.803-0.188,1.661,0.28,1.922,1.053
				l0.02,0.058l0.041,0.047c0.011,0.011,1.152,1.272,2.065,3.914c0.975,2.829,1.342,6.234,1.346,6.268l0.017,0.08
				c0.33,0.979-0.149,1.968-1.072,2.184l-0.076,0.028c-0.032,0.019-3.447,1.936-7.599,2.902c-4.146,0.964-8.064,0.752-8.104,0.752
				l-0.078,0.007c-0.926,0.215-1.797-0.458-1.94-1.484l-0.006-0.048l-0.02-0.043c-0.012-0.028-1.177-2.791-1.58-5.846
				c-0.379-2.87-0.148-4.74-0.146-4.758l0.005-0.037l-0.005-0.039c-0.113-0.822,0.707-1.661,1.485-1.843l0.062-0.023
				C38.737,64.893,42.152,63.238,45.274,62.511 M38.527,64.416c-1.021,0.255-2.044,1.33-1.922,2.449
				c-0.034,0.285-0.226,2.106,0.125,4.876c0.374,2.975,1.418,5.609,1.576,5.996c0.206,1.368,1.365,2.273,2.612,2.01
				c0.427,0.019,4.251,0.17,8.281-0.767c4.03-0.938,7.389-2.761,7.762-2.967c1.238-0.314,1.87-1.64,1.438-2.96
				c-0.049-0.399-0.455-3.646-1.414-6.379c-0.881-2.506-1.946-3.809-2.172-4.068c-0.379-1.008-1.514-1.612-2.575-1.382
				c-0.384,0.006-4.066,0.079-7.083,0.782c-1.57,0.364-3.213,0.959-4.474,1.468C39.527,63.942,38.692,64.336,38.527,64.416"/>
		</defs>
		<clipPath id="SVGID_19_">
			<use xlink:href="#SVGID_18_"  overflow="visible"/>
		</clipPath>
		
			<linearGradient id="SVGID_20_" gradientUnits="userSpaceOnUse" x1="-592.4858" y1="459.9629" x2="-591.7592" y2="459.9629" gradientTransform="matrix(-65.9859 -32.7404 -32.7404 65.9859 -23969.4277 -49668.7227)">
			<stop  offset="0" style="stop-color:#76CAF2"/>
			<stop  offset="1" style="stop-color:#000013"/>
		</linearGradient>
		<polygon clip-path="url(#SVGID_19_)" fill="url(#SVGID_20_)" points="53.24,89.767 27.961,77.225 40.638,51.677 65.917,64.22 		
			"/>
	</g>
	<path fill="#36323F" d="M48.259,87.148c-0.479,0.11-0.967,0.218-1.489,0.325l-1.158,0.229c-4.855,0.891-10.917,1.438-12.261-1.027
		c-0.141-0.255-0.285-0.487-0.437-0.733c-0.726-1.18-1.479-2.398-2.064-6.36c-0.015-0.097-0.004-0.188,0.024-0.273
		c-0.853-5.875-1.417-13.536-0.465-17.63c0.215-0.933,0.499-1.653,0.864-2.203c0.093-0.143,0.202-0.283,0.325-0.416
		c1.899-2.146,7.507-4.059,11.731-5.042c4.813-1.119,8.953-1.403,11.082-0.761c0.506,0.153,0.923,0.363,1.235,0.622
		c0.407,0.335,0.859,0.829,1.392,1.507c0.073,0.095,0.148,0.19,0.219,0.287c0.077,0.102,0.149,0.202,0.223,0.302
		c0.083,0.114,0.156,0.216,0.227,0.319c0.004,0.002,0.015,0.021,0.017,0.023c0.066,0.094,0.142,0.201,0.216,0.311
		c0,0,0.016,0.025,0.016,0.026c0.072,0.106,0.145,0.213,0.217,0.322l0.019,0.026c0.079,0.119,0.149,0.229,0.22,0.337l0.045,0.069
		c0.065,0.101,0.13,0.203,0.196,0.309l0.854,1.408l-0.479,0.333l0.501-0.292l0.612,1.072c0.073,0.131,0.147,0.265,0.221,0.398
		l0.032,0.058c0.081,0.152,0.167,0.306,0.25,0.462c0,0.002,0.002,0.005,0.004,0.006c1.716,3.194,3.313,6.734,4.507,9.993
		c0.06,0.055,0.11,0.122,0.146,0.201c0.005,0.01,0.014,0.033,0.018,0.044c0.152,0.418,0.224,0.615,0.229,0.755
		c0.085,0.248,0.105,0.359,0.06,0.49c0.005,0.016,0.01,0.03,0.013,0.048c0.88,3.354,1.502,7.151,0.831,8.494
		c-1.036,2.099-8.382,3.357-14.685,5.082c-0.978,0.265-1.861,0.488-2.702,0.685C48.8,87.02,48.53,87.085,48.259,87.148
		 M32.029,79.644c0.543,3.54,1.188,4.586,1.871,5.69c0.151,0.247,0.31,0.502,0.466,0.784c0.595,1.087,3.801,1.774,11.027,0.445
		l1.148-0.226c0.795-0.164,1.515-0.326,2.25-0.51c0.836-0.195,1.705-0.416,2.668-0.676c7.61-2.082,13.327-3.213,13.95-4.479
		c0.529-1.056-0.129-4.698-0.908-7.674c-0.034-0.118-0.07-0.248-0.102-0.378c-0.039-0.145-0.068-0.259-0.084-0.337
		c-0.008-0.031-0.01-0.06-0.013-0.09c-0.002-0.038,0.002-0.072,0.006-0.108c-0.001-0.018-0.001-0.036-0.002-0.056
		c-0.075-0.069-0.133-0.157-0.166-0.262l-0.002-0.006c-1.182-3.265-2.785-6.831-4.512-10.043c0-0.003-0.002-0.006-0.004-0.009
		c-0.083-0.154-0.165-0.308-0.248-0.458l-0.03-0.056c-0.073-0.132-0.146-0.265-0.217-0.393l-1.222-2.089l-0.237-0.38
		c-0.064-0.103-0.13-0.202-0.19-0.301l-0.044-0.066c-0.068-0.105-0.135-0.21-0.203-0.313l0.456-0.358l-0.481,0.319
		c-0.072-0.107-0.144-0.211-0.212-0.313l0.463-0.351l-0.479,0.328c-0.07-0.105-0.141-0.208-0.212-0.309
		c-0.078-0.111-0.146-0.209-0.214-0.303c-0.082-0.111-0.151-0.206-0.219-0.297c-0.072-0.098-0.14-0.187-0.208-0.274
		c-0.473-0.602-0.883-1.05-1.218-1.328c-0.194-0.159-0.475-0.296-0.834-0.405c-1.911-0.577-5.928-0.278-10.48,0.782
		c-5.262,1.222-9.738,3.107-11.135,4.688c-0.086,0.095-0.159,0.187-0.22,0.28c-0.285,0.428-0.52,1.041-0.702,1.826
		c-0.922,3.973-0.343,11.57,0.507,17.358c0.006,0.025,0.012,0.052,0.014,0.086C32.065,79.473,32.055,79.561,32.029,79.644"/>
	<path fill="#FFFFFF" d="M39.153,70.063l0.635,2.737c0,0-0.561,5.727,9.663,1.811l1.614-1.541l-0.688-5.769
		c0,0-2.297-2.349-4.987-1.258C42.696,67.138,39.153,70.063,39.153,70.063"/>
	<path fill="#1AABA4" d="M43.632,68.563c0.062,0.192,0.138,0.36,0.202,0.549c-0.852,0.517-1.597,1.075-2.254,1.711
		c-0.65,0.633-1.79,1.977-1.79,1.977l-0.559-2.4l-0.078-0.336c0,0,0.195-0.245,0.271-0.324c1.076-1.127,2.336-2.184,3.951-2.955
		c0.603-0.288,1.291-0.537,2.013-0.739c0.277-0.065,0.557-0.129,0.834-0.192c1.766-0.339,3.365-0.339,4.854-0.197
		c0.724,0.07,1.496,0.139,2.139,0.362c0.644,0.222,1.241,0.587,1.536,1.313l0.09,0.39c0.072,1.153-0.588,1.917-1.203,2.643
		c-0.628,0.74-1.324,1.461-1.99,2.154c-0.434-1.727-0.842-3.486-1.271-5.215c-1.285-0.149-4.275-0.479-4.275-0.479
		s-0.152,0.112-0.224,0.164l0.078,0.253c-0.132-0.029-0.255-0.069-0.38-0.107l-0.222,0.162l0.164,0.43l-0.583-0.173"/>
	<path fill="#FFFFFF" d="M49.995,67.513c-0.305,0.207-0.579,0.431-0.888,0.635c-1.051-0.302-2.106-0.597-3.151-0.908l-0.078-0.253
		C47.253,67.158,48.633,67.322,49.995,67.513"/>
	<path fill="#1E3E8F" d="M50.377,67.302c-1.285-0.149-4.275-0.479-4.275-0.479s-0.152,0.112-0.224,0.164
		c1.375,0.173,2.755,0.335,4.117,0.526c-0.305,0.207-0.581,0.431-0.888,0.636c-1.051-0.303-2.108-0.597-3.151-0.909l-0.38-0.107
		l-0.224,0.162c1.237,0.364,2.479,0.726,3.702,1.11c0.478,1.742,1.431,5.222,1.431,5.222l1.16-1.111L50.377,67.302z"/>
	<path fill="#1E3E8F" d="M45.519,67.724l-0.583-0.173l-1.304,1.013c1.424,0.272,2.854,0.539,4.273,0.827l1.546,5.221l0.245-0.234
		l-1.533-5.234l-2.93-0.551l-0.276-0.795l3.475,1.126l1.496,5.234l0.252-0.241L48.7,68.729
		C47.647,68.381,46.579,68.061,45.519,67.724"/>
	<path fill="#1E3E8F" d="M45.506,70.084c-0.086,0.033-0.146,0.094-0.186,0.171c-0.035,0.067-0.055,0.145-0.056,0.23
		c0.001,0.053,0.006,0.106,0.019,0.159c0.082,0.368,0.37,0.675,0.592,0.87c0.084,0.07,0.253,0.202,0.253,0.202l0.61,1.855
		l1.006,0.271l-0.607-1.856c0.156-0.038,0.256-0.114,0.309-0.219c0.177-0.318-0.09-0.886-0.624-1.309
		C46.347,70.083,45.811,69.942,45.506,70.084"/>
	<polygon fill="#FFFFFF" points="23.643,27.489 49.944,9.483 56.384,21.684 29.865,39.764 	"/>
	<path fill="#C8BB9B" d="M30.023,40.227c-0.098,0.049-0.202,0.063-0.302,0.041c-0.123-0.027-0.225-0.108-0.282-0.225L23.216,27.77
		c-0.118-0.235-0.031-0.548,0.2-0.705L49.718,9.06c0.111-0.077,0.242-0.106,0.364-0.08c0.121,0.024,0.223,0.105,0.283,0.218
		l6.439,12.198c0.124,0.235,0.038,0.554-0.195,0.714L30.09,40.188C30.069,40.203,30.047,40.218,30.023,40.227 M24.281,27.632
		l5.787,11.413l25.668-17.5l-5.989-11.347L24.281,27.632z"/>
	<polygon fill="#DFD5B8" points="24.229,29.279 49.088,12.511 54.951,23.412 29.888,40.253 	"/>
	<path fill="#A77B22" d="M60.907,20.563c-1.492-1.857-4.614-1.882-7.947-1.633c-0.187,0.01-0.373,0.026-0.563,0.042
		c-0.281,0.023-0.563,0.052-0.851,0.086c-0.206,0.02-0.409,0.047-0.616,0.072c-4.816,0.584-18.758,3.576-23.301,5.293
		c-0.18,0.064-0.364,0.135-0.543,0.205c-0.305,0.118-0.61,0.239-0.901,0.358c-0.172,0.073-0.345,0.15-0.514,0.223
		c-2.839,1.229-12.279,4.267-13.025,5.541c-2.463,4.23,2.168,18.073,5.314,24.56c-0.033-0.017-0.071-0.031-0.101-0.05
		c0.438,0.867,0.164,1.744,0.544,2.261c0.238,0.365,0.467,0.665,0.676,0.882c3.023,3.118,44.945-7.754,47.48-10.715
		C68.905,44.948,64.041,24.9,60.907,20.563"/>
	<path fill="#40210F" d="M57.72,18.596c1.663,0.457,3.068,0.587,1.264,2.283c-3.063,2.879-45.679,12.423-47.128,12.777
		c0,0-0.493-2.438,1.986-4.047s16.251-6.449,21.94-7.896C46.325,19.03,56.134,18.159,57.72,18.596"/>
	<polygon fill="#FFFFFF" points="25.07,26.312 53.465,12.376 58.046,25.51 29.427,39.489 	"/>
	<path fill="#C8BB9B" d="M29.516,39.977c-0.1,0.032-0.207,0.03-0.3-0.008c-0.117-0.045-0.206-0.142-0.246-0.267l-4.358-13.176
		c-0.083-0.251,0.049-0.55,0.297-0.671l28.394-13.938c0.122-0.059,0.254-0.067,0.368-0.023c0.117,0.043,0.208,0.137,0.25,0.26
		l4.581,13.134c0.088,0.254-0.042,0.558-0.296,0.679l-28.618,13.98C29.565,39.958,29.541,39.97,29.516,39.977 M25.679,26.552
		l4.05,12.253l27.702-13.531l-4.262-12.217L25.679,26.552z"/>
	<polygon fill="#DFD5B8" points="25.391,28.186 52.193,15.26 56.396,27.016 29.382,39.98 	"/>
	<polygon fill="#FFFFFF" points="26.787,25.725 56.556,15.5 59.428,29.187 29.435,39.425 	"/>
	<path fill="#C8BB9B" d="M29.483,39.919c-0.112,0.022-0.224,0.009-0.317-0.043c-0.11-0.063-0.185-0.169-0.21-0.299L26.309,25.88
		c-0.051-0.262,0.115-0.542,0.376-0.631l29.767-10.226c0.127-0.043,0.26-0.034,0.368,0.025c0.108,0.059,0.185,0.164,0.213,0.291
		l2.874,13.687c0.054,0.264-0.114,0.55-0.377,0.639L29.536,39.901C29.519,39.909,29.5,39.913,29.483,39.919 M27.356,26.043
		l2.462,12.738l29.034-9.909l-2.672-12.729L27.356,26.043z"/>
	<polygon fill="#DFD5B8" points="26.868,27.634 54.938,18.213 57.61,30.474 29.327,39.909 	"/>
	<path fill="#F7B400" d="M66.041,49.329c-1.193,3.738-44.626,14.648-47.666,11.46c-2.037-2.138-8.679-24.461-6.557-28.187
		c0.741-1.294,10.178-4.346,13.014-5.585c0.168-0.073,0.34-0.151,0.513-0.225c0.292-0.12,0.597-0.243,0.901-0.362
		c0.179-0.069,0.362-0.14,0.542-0.207c4.54-1.727,18.484-4.714,23.303-5.288c0.209-0.026,0.409-0.053,0.616-0.073
		c0.285-0.033,0.57-0.06,0.852-0.083c0.19-0.017,0.377-0.031,0.565-0.042c3.476-0.248,6.438-0.481,7.227,0.808
		C60.452,23.338,67.029,46.228,66.041,49.329"/>
	<path fill="#F0B42B" d="M19.696,22.486c-8.919,3.396-7.009,6.294-5.958,9.053l16.43-6.257
		C29.118,22.524,28.617,19.089,19.696,22.486"/>
	<g opacity="0.5">
		<g>
			<defs>
				
					<rect id="SVGID_21_" x="12.203" y="22.569" transform="matrix(-0.9273 0.3743 -0.3743 -0.9273 49.89 41.5413)" width="17.416" height="6.093"/>
			</defs>
			<clipPath id="SVGID_22_">
				<use xlink:href="#SVGID_21_"  overflow="visible"/>
			</clipPath>
			<path clip-path="url(#SVGID_22_)" fill="#EAC23D" d="M30.09,25.195l-16.242,6.184c-0.038-0.096-0.074-0.195-0.12-0.292
				l14.306-5.448c-0.788-2.069-1.241-4.537-5.591-3.927C28.724,19.963,29.193,22.841,30.09,25.195"/>
		</g>
	</g>
	<g>
		<defs>
			<path id="SVGID_23_" d="M47.749,46.422c0.022-0.016,0.035-0.023,0.035-0.023L47.749,46.422z M39.781,50.534
				c0,0,0.792,0.216,1.51,0.051c0.728-0.171,1.476-0.741,1.476-0.741l4.982-3.422c-0.475,0.323-5.896,3.868-13.315,3.082
				L39.781,50.534z"/>
		</defs>
		<clipPath id="SVGID_24_">
			<use xlink:href="#SVGID_23_"  overflow="visible"/>
		</clipPath>
		<defs>
			<filter id="Adobe_OpacityMaskFilter_1_" filterUnits="userSpaceOnUse" x="33.96" y="44.307" width="14.884" height="8.742">
				<feColorMatrix  type="matrix" values="1 0 0 0 0  0 1 0 0 0  0 0 1 0 0  0 0 0 1 0"/>
			</filter>
		</defs>
		<mask maskUnits="userSpaceOnUse" x="33.96" y="44.307" width="14.884" height="8.742" id="SVGID_25_">
			<g filter="url(#Adobe_OpacityMaskFilter_1_)">
				
					<linearGradient id="SVGID_26_" gradientUnits="userSpaceOnUse" x1="-503.8491" y1="597.4043" x2="-503.122" y2="597.4043" gradientTransform="matrix(0.4389 2.8154 2.8154 -0.4389 -1419.2209 1730.4414)">
					<stop  offset="0" style="stop-color:#FFFFFF"/>
					<stop  offset="0.1562" style="stop-color:#FFFFFF"/>
					<stop  offset="1" style="stop-color:#000000"/>
				</linearGradient>
				<polygon clip-path="url(#SVGID_24_)" fill="url(#SVGID_26_)" points="47.816,44.307 48.844,50.889 34.986,53.049 33.96,46.467 
									"/>
			</g>
		</mask>
		
			<linearGradient id="SVGID_27_" gradientUnits="userSpaceOnUse" x1="-503.8496" y1="597.4043" x2="-503.1224" y2="597.4043" gradientTransform="matrix(0.4389 2.8154 2.8154 -0.4389 -1419.2209 1730.4414)">
			<stop  offset="0" style="stop-color:#683220"/>
			<stop  offset="0.1562" style="stop-color:#683220"/>
			<stop  offset="1" style="stop-color:#FBD372"/>
		</linearGradient>
		<polygon clip-path="url(#SVGID_24_)" mask="url(#SVGID_25_)" fill="url(#SVGID_27_)" points="47.816,44.307 48.844,50.889 
			34.986,53.049 33.96,46.467 		"/>
	</g>
	<g>
		<defs>
			<path id="SVGID_28_" d="M50.943,43.827c0.546,2.343,2.886,3.8,5.226,3.254c2.345-0.543,3.799-2.884,3.255-5.226
				c-0.544-2.341-2.884-3.8-5.226-3.256c-0.226,0.053-0.442,0.121-0.65,0.205C51.593,39.595,50.451,41.711,50.943,43.827"/>
		</defs>
		<clipPath id="SVGID_29_">
			<use xlink:href="#SVGID_28_"  overflow="visible"/>
		</clipPath>
		<defs>
			<filter id="Adobe_OpacityMaskFilter_2_" filterUnits="userSpaceOnUse" x="48.893" y="36.738" width="12.701" height="12.503">
				<feColorMatrix  type="matrix" values="1 0 0 0 0  0 1 0 0 0  0 0 1 0 0  0 0 0 1 0"/>
			</filter>
		</defs>
		<mask maskUnits="userSpaceOnUse" x="48.893" y="36.738" width="12.701" height="12.503" id="SVGID_30_">
			<g filter="url(#Adobe_OpacityMaskFilter_2_)">
				
					<radialGradient id="SVGID_31_" cx="-525.3291" cy="416.2275" r="0.7276" gradientTransform="matrix(5.8319 -1.3567 -1.3567 -5.8319 3683.5876 1757.5256)" gradientUnits="userSpaceOnUse">
					<stop  offset="0" style="stop-color:#FFFFFF"/>
					<stop  offset="0.1562" style="stop-color:#FFFFFF"/>
					<stop  offset="0.4643" style="stop-color:#808080"/>
					<stop  offset="1" style="stop-color:#000000"/>
				</radialGradient>
				<polygon clip-path="url(#SVGID_29_)" fill="url(#SVGID_31_)" points="48.893,39.146 59.244,36.738 61.594,46.832 51.242,49.241 
									"/>
			</g>
		</mask>
		
			<radialGradient id="SVGID_32_" cx="-525.3291" cy="416.2275" r="0.7276" gradientTransform="matrix(5.8319 -1.3567 -1.3567 -5.8319 3683.5876 1757.5256)" gradientUnits="userSpaceOnUse">
			<stop  offset="0" style="stop-color:#EA8362"/>
			<stop  offset="0.1562" style="stop-color:#EA8362"/>
			<stop  offset="0.4643" style="stop-color:#EA8362"/>
			<stop  offset="1" style="stop-color:#FBD372"/>
		</radialGradient>
		<polygon clip-path="url(#SVGID_29_)" mask="url(#SVGID_30_)" fill="url(#SVGID_32_)" points="48.893,39.146 59.244,36.738 
			61.594,46.832 51.242,49.241 		"/>
	</g>
	<g>
		<defs>
			<path id="SVGID_33_" d="M22.174,50.818c0.546,2.341,2.885,3.799,5.228,3.253c2.342-0.544,3.799-2.885,3.255-5.226
				c-0.547-2.343-2.885-3.801-5.228-3.255c-0.225,0.052-0.441,0.121-0.649,0.204C22.826,46.585,21.681,48.701,22.174,50.818"/>
		</defs>
		<clipPath id="SVGID_34_">
			<use xlink:href="#SVGID_33_"  overflow="visible"/>
		</clipPath>
		<defs>
			<filter id="Adobe_OpacityMaskFilter_3_" filterUnits="userSpaceOnUse" x="20.125" y="43.728" width="12.699" height="12.503">
				<feColorMatrix  type="matrix" values="1 0 0 0 0  0 1 0 0 0  0 0 1 0 0  0 0 0 1 0"/>
			</filter>
		</defs>
		<mask maskUnits="userSpaceOnUse" x="20.125" y="43.728" width="12.699" height="12.503" id="SVGID_35_">
			<g filter="url(#Adobe_OpacityMaskFilter_3_)">
				
					<radialGradient id="SVGID_36_" cx="-523.4741" cy="416.2461" r="0.7273" gradientTransform="matrix(5.8319 -1.3567 -1.3567 -5.8319 3644.0212 1767.135)" gradientUnits="userSpaceOnUse">
					<stop  offset="0" style="stop-color:#FFFFFF"/>
					<stop  offset="0.1562" style="stop-color:#FFFFFF"/>
					<stop  offset="0.4643" style="stop-color:#808080"/>
					<stop  offset="1" style="stop-color:#000000"/>
				</radialGradient>
				<polygon clip-path="url(#SVGID_34_)" fill="url(#SVGID_36_)" points="20.125,46.136 30.477,43.728 32.825,53.822 22.474,56.23 
									"/>
			</g>
		</mask>
		
			<radialGradient id="SVGID_37_" cx="-523.4741" cy="416.2461" r="0.7273" gradientTransform="matrix(5.8319 -1.3567 -1.3567 -5.8319 3644.0212 1767.135)" gradientUnits="userSpaceOnUse">
			<stop  offset="0" style="stop-color:#EA8362"/>
			<stop  offset="0.1562" style="stop-color:#EA8362"/>
			<stop  offset="0.4643" style="stop-color:#EA8362"/>
			<stop  offset="1" style="stop-color:#FBD372"/>
		</radialGradient>
		<polygon clip-path="url(#SVGID_34_)" mask="url(#SVGID_35_)" fill="url(#SVGID_37_)" points="20.125,46.136 30.477,43.728 
			32.825,53.822 22.474,56.23 		"/>
	</g>
	<g>
		<defs>
			<path id="SVGID_38_" d="M26.057,45.432c0.421,1.472,1.85,2.368,3.254,2.042l0.07-0.018c1.408-0.37,2.208-1.881,1.782-3.367
				c-0.42-1.474-1.85-2.37-3.253-2.044l-0.071,0.019c-0.103,0.027-0.203,0.06-0.3,0.1C26.32,42.654,25.664,44.053,26.057,45.432"/>
		</defs>
		<clipPath id="SVGID_39_">
			<use xlink:href="#SVGID_38_"  overflow="visible"/>
		</clipPath>
		
			<linearGradient id="SVGID_40_" gradientUnits="userSpaceOnUse" x1="-618.5537" y1="415.002" x2="-617.8265" y2="415.002" gradientTransform="matrix(-1.8759 -8.0633 -8.0633 1.8759 2215.2966 -5718.3608)">
			<stop  offset="0" style="stop-color:#EDA95B"/>
			<stop  offset="1" style="stop-color:#FBD6A0"/>
		</linearGradient>
		<polygon clip-path="url(#SVGID_39_)" fill="url(#SVGID_40_)" points="26.274,48.76 24.786,42.357 31.007,40.912 32.497,47.312 		
			"/>
	</g>
	<g>
		<defs>
			<path id="SVGID_41_" d="M26.316,45.461c0.392,1.372,1.747,2.214,3.026,1.878s1.998-1.723,1.605-3.095
				c-0.392-1.375-1.747-2.214-3.025-1.878c-0.092,0.024-0.183,0.054-0.269,0.091C26.543,42.903,25.952,44.188,26.316,45.461"/>
		</defs>
		<clipPath id="SVGID_42_">
			<use xlink:href="#SVGID_41_"  overflow="visible"/>
		</clipPath>
		
			<radialGradient id="SVGID_43_" cx="-541.8521" cy="541.9258" r="0.7273" gradientTransform="matrix(1.3557 5.972 4.4979 -1.1222 -1674.7825 3886.3521)" gradientUnits="userSpaceOnUse">
			<stop  offset="0" style="stop-color:#AF966F"/>
			<stop  offset="0.3438" style="stop-color:#583E2B"/>
			<stop  offset="1" style="stop-color:#231815"/>
		</radialGradient>
		<polygon clip-path="url(#SVGID_42_)" fill="url(#SVGID_43_)" points="30.831,41.299 32.154,47.131 26.489,48.545 25.166,42.713 		
			"/>
	</g>
	<g>
		<defs>
			<path id="SVGID_44_" d="M27.641,43.926c0.121,0.42,0.529,0.677,0.932,0.582l0.019-0.004c0.404-0.106,0.632-0.539,0.511-0.964
				c-0.121-0.421-0.53-0.676-0.93-0.583l-0.021,0.005c-0.028,0.007-0.058,0.016-0.086,0.028
				C27.716,43.131,27.529,43.53,27.641,43.926"/>
		</defs>
		<clipPath id="SVGID_45_">
			<use xlink:href="#SVGID_44_"  overflow="visible"/>
		</clipPath>
		
			<linearGradient id="SVGID_46_" gradientUnits="userSpaceOnUse" x1="-699.3403" y1="301.4932" x2="-698.6127" y2="301.4932" gradientTransform="matrix(-0.5363 -2.3055 -2.3055 0.5363 348.5908 -1729.4069)">
			<stop  offset="0" style="stop-color:#F1CFB2"/>
			<stop  offset="1" style="stop-color:#FDEDD6"/>
		</linearGradient>
		<polygon clip-path="url(#SVGID_45_)" fill="url(#SVGID_46_)" points="27.704,44.875 27.279,43.046 29.056,42.632 29.482,44.463 		
			"/>
	</g>
	<g opacity="0.4">
		<g>
			<defs>
				
					<rect id="SVGID_47_" x="31.83" y="44.63" transform="matrix(-0.9273 0.3743 -0.3743 -0.9273 96.6909 75.1391)" width="18.436" height="4.661"/>
			</defs>
			<clipPath id="SVGID_48_">
				<use xlink:href="#SVGID_47_"  overflow="visible"/>
			</clipPath>
			<g clip-path="url(#SVGID_48_)">
				<defs>
					<path id="SVGID_49_" d="M50.181,44.959c0,0-3.273,2.801-9.108,4.158c-5.837,1.358-9.065,0.069-9.065,0.069
						s4.396-3.338,8.027-4.182C43.666,44.158,50.181,44.959,50.181,44.959"/>
				</defs>
				<clipPath id="SVGID_50_">
					<use xlink:href="#SVGID_49_"  overflow="visible"/>
				</clipPath>
				<defs>
					<filter id="Adobe_OpacityMaskFilter_4_" filterUnits="userSpaceOnUse" x="30.82" y="40.741" width="20.52" height="12.591">
						<feColorMatrix  type="matrix" values="1 0 0 0 0  0 1 0 0 0  0 0 1 0 0  0 0 0 1 0"/>
					</filter>
				</defs>
				<mask maskUnits="userSpaceOnUse" x="30.82" y="40.741" width="20.52" height="12.591" id="SVGID_51_">
					<g filter="url(#Adobe_OpacityMaskFilter_4_)">
						
							<linearGradient id="SVGID_52_" gradientUnits="userSpaceOnUse" x1="-510.7944" y1="566.8232" x2="-510.0672" y2="566.8232" gradientTransform="matrix(0.7929 3.4083 3.4083 -0.7929 -1486.1389 2236.0083)">
							<stop  offset="0" style="stop-color:#FFFFFF"/>
							<stop  offset="1" style="stop-color:#000000"/>
						</linearGradient>
						<polygon clip-path="url(#SVGID_50_)" fill="url(#SVGID_52_)" points="49.417,40.741 51.34,49.004 32.742,53.332 30.82,45.068 
													"/>
					</g>
				</mask>
				
					<linearGradient id="SVGID_53_" gradientUnits="userSpaceOnUse" x1="-510.7959" y1="566.8223" x2="-510.0687" y2="566.8223" gradientTransform="matrix(0.7929 3.4083 3.4083 -0.7929 -1486.135 2236.0122)">
					<stop  offset="0" style="stop-color:#D5905D"/>
					<stop  offset="1" style="stop-color:#FBD6A0"/>
				</linearGradient>
				<polygon clip-path="url(#SVGID_50_)" mask="url(#SVGID_51_)" fill="url(#SVGID_53_)" points="49.417,40.741 51.34,49.004 
					32.742,53.332 30.82,45.068 				"/>
			</g>
		</g>
	</g>
	<path fill="#40210F" d="M41.119,49.326c-5.874,1.367-9.135,0.106-9.272,0.052c-0.177-0.071-0.264-0.272-0.193-0.45
		c0.071-0.179,0.273-0.265,0.452-0.193c0.032,0.01,3.214,1.228,8.855-0.084c5.69-1.324,8.932-4.059,8.962-4.086
		c0.146-0.126,0.366-0.108,0.491,0.037s0.109,0.366-0.039,0.492C50.239,45.209,46.971,47.965,41.119,49.326"/>
	<g>
		<defs>
			<path id="SVGID_54_" d="M48.1,40.304c0.42,1.472,1.85,2.369,3.254,2.042l0.071-0.018c1.407-0.37,2.206-1.881,1.781-3.368
				c-0.419-1.474-1.849-2.37-3.254-2.043l-0.069,0.018c-0.104,0.026-0.205,0.06-0.299,0.099
				C48.364,37.524,47.706,38.924,48.1,40.304"/>
		</defs>
		<clipPath id="SVGID_55_">
			<use xlink:href="#SVGID_54_"  overflow="visible"/>
		</clipPath>
		
			<linearGradient id="SVGID_56_" gradientUnits="userSpaceOnUse" x1="-618.5537" y1="416.0293" x2="-617.8265" y2="416.0293" gradientTransform="matrix(-1.8759 -8.0633 -8.0633 1.8759 2245.6169 -5725.4077)">
			<stop  offset="0" style="stop-color:#EDA95B"/>
			<stop  offset="1" style="stop-color:#FBD6A0"/>
		</linearGradient>
		<polygon clip-path="url(#SVGID_55_)" fill="url(#SVGID_56_)" points="48.317,43.631 46.829,37.23 53.051,35.783 54.539,42.185 		
			"/>
	</g>
	<g>
		<defs>
			<path id="SVGID_57_" d="M48.358,40.333c0.394,1.372,1.748,2.215,3.026,1.878c1.28-0.336,1.998-1.723,1.605-3.095
				c-0.392-1.375-1.746-2.213-3.026-1.877c-0.093,0.023-0.183,0.053-0.269,0.087C48.587,37.775,47.996,39.06,48.358,40.333"/>
		</defs>
		<clipPath id="SVGID_58_">
			<use xlink:href="#SVGID_57_"  overflow="visible"/>
		</clipPath>
		
			<radialGradient id="SVGID_59_" cx="-541.8745" cy="540.0938" r="0.7275" gradientTransform="matrix(1.3557 5.972 4.4979 -1.1222 -1644.4661 3879.3013)" gradientUnits="userSpaceOnUse">
			<stop  offset="0" style="stop-color:#AF966F"/>
			<stop  offset="0.3438" style="stop-color:#583E2B"/>
			<stop  offset="1" style="stop-color:#231815"/>
		</radialGradient>
		<polygon clip-path="url(#SVGID_58_)" fill="url(#SVGID_59_)" points="52.875,36.171 54.197,42.002 48.533,43.414 47.208,37.584 		
			"/>
	</g>
	<g>
		<defs>
			<path id="SVGID_60_" d="M49.683,38.796c0.122,0.421,0.53,0.677,0.933,0.585l0.02-0.006c0.403-0.107,0.632-0.54,0.509-0.965
				c-0.12-0.419-0.528-0.677-0.931-0.583l-0.018,0.005c-0.029,0.008-0.06,0.019-0.088,0.028
				C49.76,38.003,49.571,38.402,49.683,38.796"/>
		</defs>
		<clipPath id="SVGID_61_">
			<use xlink:href="#SVGID_60_"  overflow="visible"/>
		</clipPath>
		
			<linearGradient id="SVGID_62_" gradientUnits="userSpaceOnUse" x1="-699.3369" y1="305.0801" x2="-698.6097" y2="305.0801" gradientTransform="matrix(-0.5363 -2.3055 -2.3055 0.5363 378.9072 -1736.4537)">
			<stop  offset="0" style="stop-color:#F1CFB2"/>
			<stop  offset="1" style="stop-color:#FDEDD6"/>
		</linearGradient>
		<polygon clip-path="url(#SVGID_61_)" fill="url(#SVGID_62_)" points="49.746,39.747 49.322,37.917 51.1,37.505 51.525,39.334 		
			"/>
	</g>
	<path fill="#36323F" d="M40.328,58.867l-0.485,0.113c-7.346,1.692-19.96,4.229-21.886,2.209c-1.241-1.303-3.492-8.058-4.98-13.752
		c-1.206-4.614-3.025-12.71-1.665-15.115c0.004-0.023,0.009-0.046,0.014-0.071c0.108-0.966,0.337-1.763,0.682-2.366
		c0.081-0.14,0.201-0.278,0.375-0.423c-0.739-3.128,1.362-5.328,7.11-7.517c1.371-0.521,2.61-0.905,3.682-1.146
		c0.312-0.069,0.621,0.128,0.69,0.44c0.069,0.311-0.124,0.618-0.435,0.689c-0.002,0-0.004,0.001-0.006,0.001
		c-1.015,0.228-2.202,0.596-3.521,1.098c-6.847,2.607-6.845,4.72-6.304,6.495c0.073,0.244-0.021,0.51-0.233,0.65
		c-0.288,0.192-0.351,0.286-0.353,0.288c-0.266,0.467-0.448,1.123-0.537,1.943c-0.003,0.018-0.005,0.036-0.009,0.052
		c-0.011,0.06-0.024,0.12-0.032,0.177c-0.015,0.091-0.05,0.178-0.104,0.254c-0.007,0.008-0.015,0.02-0.022,0.029
		c-1.865,3.445,4.496,25.381,6.488,27.472c0.846,0.889,7.714,0.474,20.788-2.538c6.292-1.449,12.676-3.21,17.516-4.833
		c7.79-2.609,8.352-3.744,8.391-3.865c0.038-0.116,0.094-0.422,0.063-1.128c-0.009-0.2,0.09-0.392,0.255-0.506
		c0.201-0.137,0.277-0.215,0.301-0.242c0.738-0.881,0.735-5.154-0.95-12.707c-1.416-6.347-3.405-12.188-4.845-14.219
		c-0.652-0.823-0.992-1.197-2.097-1.393c-0.315-0.057-0.523-0.357-0.47-0.672c0.057-0.315,0.357-0.525,0.672-0.468
		c1.485,0.263,2.051,0.864,2.814,1.826c0.007,0.008,0.013,0.016,0.018,0.023c1.779,2.5,3.813,9.161,5.037,14.652
		c0.771,3.455,2.383,11.706,0.706,13.704c-0.071,0.085-0.162,0.171-0.272,0.263c0.008,0.528-0.035,0.928-0.13,1.219
		c-0.149,0.477-0.553,1.74-9.124,4.613C52.718,55.709,46.497,57.434,40.328,58.867"/>
	<path fill="#36323F" d="M58.964,21.613c-0.099,0.022-0.204,0.02-0.303-0.012c-6.611-2.053-28.194,4.089-28.412,4.151
		c-0.159,0.046-0.325,0.021-0.464-0.064c-0.138-0.085-0.234-0.225-0.265-0.386c-0.27-1.424-0.89-2.44-1.849-3.021
		c-1.785-1.081-4.18-0.369-4.204-0.362c-0.309,0.088-0.631-0.079-0.724-0.385s0.081-0.63,0.385-0.724
		c0.119-0.036,2.92-0.867,5.143,0.479c1.102,0.667,1.856,1.736,2.247,3.183c3.548-0.986,21.394-5.77,28.103-4.085l1.095-1.354
		c0.202-0.249,0.566-0.288,0.815-0.086c0.249,0.201,0.287,0.565,0.086,0.815l-1.335,1.652
		C59.198,21.516,59.087,21.584,58.964,21.613"/>
</g>
</svg>
