<?xml version="1.0" encoding="utf-8"?>
<!-- Generator: $$$/GeneralStr/196=Adobe Illustrator 27.6.0, SVG Export Plug-In . SVG Version: 6.00 Build 0)  -->
<svg version="1.1" id="圖層_1" xmlns="http://www.w3.org/2000/svg" xmlns:xlink="http://www.w3.org/1999/xlink" x="0px" y="0px"
	 viewBox="0 0 1081.9 355.9" style="enable-background:new 0 0 1081.9 355.9;" xml:space="preserve">
<style type="text/css">
	.st0{fill-rule:evenodd;clip-rule:evenodd;fill:#FCFBE5;enable-background:new    ;}
</style>
<path class="st0" d="M1069.9,28.9l8.9-8.9v8.9H1069.9z M1058,20v8.9h-8.9L1058,20z M1038.4,20v8.9h-8.9L1038.4,20z M1017.6,20v8.9
	h-8.9L1017.6,20z M973.6,263h-3c-0.2,0-0.3,0.1-0.3,0.3v3c0,0.2-0.1,0.3-0.3,0.3h-0.8c-0.2,0-0.3-0.1-0.3-0.3v-3
	c0-0.2-0.1-0.3-0.3-0.3h-3c-0.2,0-0.3-0.1-0.3-0.3v-0.8c0-0.2,0.1-0.3,0.3-0.3h3c0.2,0,0.3-0.1,0.3-0.3v-3c0-0.2,0.1-0.3,0.3-0.3
	h0.8c0.2,0,0.3,0.1,0.3,0.3v3c0,0.2,0.1,0.3,0.3,0.3h3c0.2,0,0.3,0.1,0.3,0.3v0.8C973.9,262.9,973.8,263,973.6,263z M965.4,253.7
	h-4.1c-0.2,0-0.4,0.2-0.4,0.4v4.1c0,0.2-0.2,0.4-0.4,0.4h-1.1c-0.2,0-0.4-0.2-0.4-0.4v-4.1c0-0.2-0.2-0.4-0.4-0.4h-4.1
	c-0.2,0-0.4-0.2-0.4-0.4v-1.1c0-0.2,0.2-0.4,0.4-0.4h4.1c0.2,0,0.4-0.2,0.4-0.4v-4.1c0-0.2,0.2-0.4,0.4-0.4h1.1
	c0.2,0,0.4,0.2,0.4,0.4v4.1c0,0.2,0.2,0.4,0.4,0.4h4.1c0.2,0,0.4,0.2,0.4,0.4v1.1C965.8,253.5,965.6,253.7,965.4,253.7z M917,150.5
	c-3.7,0.1-6.8-2.9-6.9-6.6c-0.1-3.7,2.9-6.8,6.6-6.9c3.7-0.1,6.8,2.9,6.9,6.6C923.7,147.3,920.7,150.4,917,150.5z M864.2,60
	c-4.9,0-8.8-4-8.8-8.8c0-4.9,4-8.8,8.8-8.8s8.8,4,8.8,8.8S869,60,864.2,60z M864.2,44.1c-3.9,0-7.1,3.2-7.1,7.1s3.2,7.1,7.1,7.1
	s7.1-3.2,7.1-7.1C871.2,47.2,868.1,44.1,864.2,44.1z M850.3,326.7h-3.9c-0.2,0-0.4,0.2-0.4,0.4v3.8c0,0.2-0.2,0.4-0.4,0.4h-1.1
	c-0.2,0-0.4-0.2-0.4-0.4V327c0-0.2-0.2-0.4-0.4-0.4H840c-0.2,0-0.4-0.2-0.4-0.4v-1.1c0-0.2,0.2-0.4,0.4-0.4h3.8
	c0.2,0,0.4-0.2,0.4-0.4v-3.8c0-0.2,0.2-0.4,0.4-0.4h1.1c0.2,0,0.4,0.2,0.4,0.4v3.8c0,0.2,0.2,0.4,0.4,0.4h3.9c0.2,0,0.4,0.2,0.4,0.4
	v1.1C850.7,326.5,850.6,326.7,850.3,326.7z M726,342.8l2.9-2.9l2.9,2.9l-2.9,2.9L726,342.8z M719.3,349.4l2.9-2.9l2.9,2.9l-2.9,2.9
	L719.3,349.4z M719.3,336.2l2.9-2.9l2.9,2.9l-2.9,2.9L719.3,336.2z M703.1,342.8l2.9-2.9l2.9,2.9l-2.9,2.9L703.1,342.8z
	 M696.5,349.4l2.9-2.9l2.9,2.9l-2.9,2.9L696.5,349.4z M696.5,336.2l2.9-2.9l2.9,2.9l-2.9,2.9L696.5,336.2z M697.9,60.2h-4.8
	c-0.3,0-0.5,0.2-0.5,0.5v4.8c0,0.3-0.2,0.5-0.5,0.5h-1.4c-0.3,0-0.5-0.2-0.5-0.5v-4.8c0-0.3-0.2-0.5-0.5-0.5H685
	c-0.3,0-0.5-0.2-0.5-0.5v-1.4c0-0.3,0.2-0.5,0.5-0.5h4.8c0.3,0,0.5-0.2,0.5-0.5v-4.8c0-0.3,0.2-0.5,0.5-0.5h1.4
	c0.3,0,0.5,0.2,0.5,0.5v4.8c0,0.3,0.2,0.5,0.5,0.5h4.8c0.3,0,0.5,0.2,0.5,0.5v1.4C698.4,59.9,698.2,60.2,697.9,60.2z M689.3,342.8
	l-2.9,2.9l-2.9-2.9l2.9-2.9L689.3,342.8z M676.9,349.4l2.9-2.9l2.9,2.9l-2.9,2.9L676.9,349.4z M676.9,336.2l2.9-2.9l2.9,2.9
	l-2.9,2.9L676.9,336.2z M675.8,60h-4.1c-0.2,0-0.4,0.2-0.4,0.4v4.1c0,0.2-0.2,0.4-0.4,0.4h-1.2c-0.2,0-0.4-0.2-0.4-0.4v-4.1
	c0-0.2-0.2-0.4-0.4-0.4h-4.1c-0.2,0-0.4-0.2-0.4-0.4v-1.2c0-0.2,0.2-0.4,0.4-0.4h4.1c0.2,0,0.4-0.2,0.4-0.4v-4.1
	c0-0.2,0.2-0.4,0.4-0.4h1.2c0.2,0,0.4,0.2,0.4,0.4v4.1c0,0.2,0.2,0.4,0.4,0.4h4.1c0.2,0,0.4,0.2,0.4,0.4v1.2
	C676.2,59.8,676,60,675.8,60z M663.6,345.7l-2.9-2.9l2.9-2.9l2.9,2.9L663.6,345.7z M654.1,349.4l2.9-2.9l2.9,2.9l-2.9,2.9
	L654.1,349.4z M654.1,336.2l2.9-2.9l2.9,2.9L657,339L654.1,336.2z M655.9,59.8h-3.4c-0.2,0-0.3,0.2-0.3,0.3v3.4
	c0,0.2-0.2,0.3-0.3,0.3h-1c-0.2,0-0.3-0.2-0.3-0.3v-3.4c0-0.2-0.2-0.3-0.3-0.3h-3.4c-0.2,0-0.3-0.2-0.3-0.3v-1
	c0-0.2,0.2-0.3,0.3-0.3h3.4c0.2,0,0.3-0.2,0.3-0.3v-3.4c0-0.2,0.2-0.3,0.3-0.3h1c0.2,0,0.3,0.2,0.3,0.3v3.4c0,0.2,0.2,0.3,0.3,0.3
	h3.4c0.2,0,0.3,0.2,0.3,0.3v1C656.2,59.7,656.1,59.8,655.9,59.8z M647.6,131.3v-3.8c0-0.2,0.2-0.4,0.4-0.4h1.1
	c0.2,0,0.4,0.2,0.4,0.4v3.8c0,0.2,0.2,0.4,0.4,0.4h3.8c0.2,0,0.4,0.2,0.4,0.4v1.1c0,0.2-0.2,0.4-0.4,0.4h-3.8
	c-0.2,0-0.4,0.2-0.4,0.4v3.8c0,0.2-0.2,0.4-0.4,0.4H648c-0.2,0-0.4-0.2-0.4-0.4V134c0-0.2-0.2-0.4-0.4-0.4h-3.8
	c-0.2,0-0.4-0.2-0.4-0.4V132c0-0.2,0.2-0.4,0.4-0.4h3.8C647.4,131.7,647.6,131.5,647.6,131.3z M628.9,314.4h-3.8
	c-0.2,0-0.4,0.2-0.4,0.4v3.8c0,0.2-0.2,0.4-0.4,0.4h-1.1c-0.2,0-0.4-0.2-0.4-0.4v-3.8c0-0.2-0.2-0.4-0.4-0.4h-3.9
	c-0.2,0-0.4-0.2-0.4-0.4v-1.1c0-0.2,0.2-0.4,0.4-0.4h3.9c0.2,0,0.4-0.2,0.4-0.4v-3.8c0-0.2,0.2-0.4,0.4-0.4h1.1
	c0.2,0,0.4,0.2,0.4,0.4v3.8c0,0.2,0.2,0.4,0.4,0.4h3.8c0.2,0,0.4,0.2,0.4,0.4v1.1C629.3,314.2,629.1,314.4,628.9,314.4z M582.3,40.5
	v10.4h-10.4L582.3,40.5z M493.5,339.9c-4.9,0-8.8-4-8.8-8.8s4-8.8,8.8-8.8c4.9,0,8.8,4,8.8,8.8S498.4,339.9,493.5,339.9z M493.5,324
	c-3.9,0-7.1,3.2-7.1,7.1s3.2,7.1,7.1,7.1s7.1-3.2,7.1-7.1S497.4,324,493.5,324z M436.5,21.4h-3.9c-0.2,0-0.4,0.2-0.4,0.4v3.8
	c0,0.2-0.2,0.4-0.4,0.4h-1.1c-0.2,0-0.4-0.2-0.4-0.4v-3.8c0-0.2-0.2-0.4-0.4-0.4H426c-0.2,0-0.4-0.2-0.4-0.4v-1.1
	c0-0.2,0.2-0.4,0.4-0.4h3.9c0.2,0,0.4-0.2,0.4-0.4v-3.8c0-0.2,0.2-0.4,0.4-0.4h1.1c0.2,0,0.4,0.2,0.4,0.4v3.8c0,0.2,0.2,0.4,0.4,0.4
	h3.9c0.2,0,0.4,0.2,0.4,0.4V21C436.9,21.2,436.7,21.4,436.5,21.4z M372.9,130.9l3.3-3.3l3.3,3.3l-3.3,3.3L372.9,130.9z M372.9,110.1
	l3.3-3.3l3.3,3.3l-3.3,3.3L372.9,110.1z M365.3,123.3l3.3-3.3l3.3,3.3l-3.3,3.3L365.3,123.3z M365.3,102.5l3.3-3.3l3.3,3.3l-3.3,3.3
	L365.3,102.5z M357.7,130.9l3.3-3.3l3.3,3.3l-3.3,3.3L357.7,130.9z M357.7,110.1l3.3-3.3l3.3,3.3l-3.3,3.3L357.7,110.1z
	 M366.3,337.1l-9.4-5.4l9.4-5.4V337.1z M346.4,326.2v10.9l-9.4-5.4L346.4,326.2z M326.5,326.2v10.9l-9.4-5.4L326.5,326.2z
	 M306.6,326.2v10.9l-9.4-5.4L306.6,326.2z M291.3,76.9H287c-0.2,0-0.4,0.2-0.4,0.4v4.3c0,0.2-0.2,0.4-0.4,0.4H285
	c-0.2,0-0.4-0.2-0.4-0.4v-4.3c0-0.2-0.2-0.4-0.4-0.4h-4.3c-0.2,0-0.4-0.2-0.4-0.4v-1.2c0-0.2,0.2-0.4,0.4-0.4h4.3
	c0.2,0,0.4-0.2,0.4-0.4V70c0-0.2,0.2-0.4,0.4-0.4h1.2c0.2,0,0.4,0.2,0.4,0.4v4.3c0,0.2,0.2,0.4,0.4,0.4h4.3c0.2,0,0.4,0.2,0.4,0.4
	v1.2C291.7,76.7,291.5,76.9,291.3,76.9z M279.4,63.3h-5.9c-0.3,0-0.6,0.3-0.6,0.6v5.9c0,0.3-0.3,0.6-0.6,0.6h-1.7
	c-0.3,0-0.6-0.3-0.6-0.6v-5.9c0-0.3-0.3-0.6-0.6-0.6h-5.9c-0.3,0-0.6-0.3-0.6-0.6V61c0-0.3,0.3-0.6,0.6-0.6h5.9
	c0.3,0,0.6-0.3,0.6-0.6V54c0-0.3,0.3-0.6,0.6-0.6h1.7c0.3,0,0.6,0.3,0.6,0.6v5.9c0,0.3,0.3,0.6,0.6,0.6h5.9c0.3,0,0.6,0.3,0.6,0.6
	v1.7C280,63,279.7,63.3,279.4,63.3z M248.5,317.7h-3.9c-0.2,0-0.4,0.2-0.4,0.4v3.8c0,0.2-0.2,0.4-0.4,0.4h-1.1
	c-0.2,0-0.4-0.2-0.4-0.4V318c0-0.2-0.2-0.4-0.4-0.4h-3.8c-0.2,0-0.4-0.2-0.4-0.4v-1.1c0-0.2,0.2-0.4,0.4-0.4h3.8
	c0.2,0,0.4-0.2,0.4-0.4v-3.8c0-0.2,0.2-0.4,0.4-0.4h1.1c0.2,0,0.4,0.2,0.4,0.4v3.8c0,0.2,0.2,0.4,0.4,0.4h3.9c0.2,0,0.4,0.2,0.4,0.4
	v1.1C248.8,317.5,248.7,317.7,248.5,317.7z M202.8,344.3h-3.7c-0.2,0-0.4,0.2-0.4,0.4v3.7c0,0.2-0.2,0.4-0.4,0.4h-1
	c-0.2,0-0.4-0.2-0.4-0.4v-3.7c0-0.2-0.2-0.4-0.4-0.4h-3.7c-0.2,0-0.4-0.2-0.4-0.4v-1c0-0.2,0.2-0.4,0.4-0.4h3.7
	c0.2,0,0.4-0.2,0.4-0.4v-3.7c0-0.2,0.2-0.4,0.4-0.4h1c0.2,0,0.4,0.2,0.4,0.4v3.7c0,0.2,0.2,0.4,0.4,0.4h3.7c0.2,0,0.4,0.2,0.4,0.4v1
	C203.2,344.1,203,344.3,202.8,344.3z M89.7,324.5c-4.9,0-8.8-4-8.8-8.8s4-8.8,8.8-8.8s8.8,4,8.8,8.8S94.6,324.5,89.7,324.5z
	 M89.7,308.6c-3.9,0-7.1,3.2-7.1,7.1s3.2,7.1,7.1,7.1s7.1-3.2,7.1-7.1C96.8,311.8,93.6,308.6,89.7,308.6z M85.6,144.4v9.8H74.9
	L85.6,144.4z M10.6,37.7v7.5H3.1L10.6,37.7z M10.6,19.5V27H3.1L10.6,19.5z M10.6,1.4v7.5H3.1L10.6,1.4z M916.6,153.4
	c2.8-0.1,5.1,2.2,5.2,4.9c0.1,2.8-2.2,5.1-5,5.2c-2.8,0.1-5.1-2.2-5.2-4.9C911.6,155.8,913.8,153.5,916.6,153.4z M916.8,162.3
	c2.1,0,3.8-1.8,3.7-3.9c0-2.1-1.8-3.8-3.9-3.7c-2.1,0-3.8,1.8-3.7,3.9C913,160.6,914.7,162.3,916.8,162.3z"/>
</svg>
