<?xml version="1.0" encoding="utf-8"?>
<!-- Generator: $$$/GeneralStr/196=Adobe Illustrator 27.6.0, SVG Export Plug-In . SVG Version: 6.00 Build 0)  -->
<svg version="1.1" id="圖層_1" xmlns="http://www.w3.org/2000/svg" xmlns:xlink="http://www.w3.org/1999/xlink" x="0px" y="0px"
	 viewBox="0 0 173.8 55.9" style="enable-background:new 0 0 173.8 55.9;" xml:space="preserve">
<style type="text/css">
	.st0{fill-rule:evenodd;clip-rule:evenodd;fill:#FFFFFF;}
</style>
<path class="st0" d="M172.3,35.3c-0.2,0-0.4-0.1-0.5-0.3l-4.7-7.4c-1-1.6-2.8-2.5-4.8-2.3c-1.6,0.2-3,1.1-3.9,2.5l-2.9,4.6
	c-1.2,1.8-3.2,2.9-5.4,2.9c-2.2,0-4.2-1.1-5.4-2.9l-2.9-4.6c-0.9-1.3-2.3-2.3-3.8-2.4c-2-0.2-3.8,0.7-4.8,2.3l-3,4.7
	c-1.2,1.8-3.2,2.9-5.4,2.9c-2.2,0-4.2-1.1-5.4-2.9l-2.9-4.6c-0.9-1.3-2.3-2.3-3.8-2.4c-2-0.2-3.8,0.7-4.8,2.3l-3,4.7
	c-1.2,1.8-3.2,2.9-5.4,2.9c-0.9,0-1.7-0.2-2.5-0.5c-1.2-0.5-2.1-1.3-2.8-2.4v-0.1l-3-4.7c-0.5-0.8-1.2-1.4-2.1-1.8
	c-0.2-0.1-0.3-0.2-0.5-0.2c-0.2-0.1-0.3-0.1-0.5-0.2H88c-0.2,0-0.3-0.1-0.5-0.1c-0.4,0-0.8,0-1.2,0c0,0,0,0-0.1,0
	c-0.2,0-0.4,0.1-0.5,0.1c-0.2,0-0.3,0.1-0.5,0.2s-0.3,0.1-0.5,0.2s-0.4,0.2-0.6,0.4c-0.6,0.4-1.1,0.9-1.4,1.4l-3,4.7v0.1
	c-0.7,1.1-1.7,1.9-2.8,2.4l0,0c-0.8,0.3-1.6,0.5-2.5,0.5c-2.2,0-4.2-1.1-5.4-2.9l-2.9-4.6c-0.9-1.3-2.3-2.3-3.8-2.4
	c-2-0.2-3.8,0.7-4.8,2.3l-3,4.7c-1.2,1.8-3.2,2.9-5.4,2.9c-2.2,0-4.2-1.1-5.4-2.9l-2.9-4.6c-0.8-1.3-2.3-2.3-3.8-2.4
	c-2-0.2-3.8,0.7-4.8,2.3l-3,4.7c-1.2,1.8-3.2,2.9-5.4,2.9s-4.2-1.1-5.4-2.9l-2.9-4.6c-0.9-1.3-2.3-2.3-3.8-2.4
	c-2-0.2-3.8,0.7-4.8,2.3l-4.7,7.4c-0.1,0.2-0.3,0.3-0.6,0.3c-0.4,0-0.6-0.3-0.6-0.6c0-0.1,0-0.2,0.1-0.3l4.7-7.4
	c1.2-1.8,3.2-2.9,5.4-2.9s4.2,1.1,5.4,2.9l3,4.7c0.9,1.5,2.5,2.3,4.3,2.3c1.7,0,3.4-0.9,4.3-2.3l3-4.7c1.2-1.8,3.2-2.9,5.4-2.9
	s4.2,1.1,5.4,2.9l3,4.7c0.9,1.5,2.5,2.3,4.3,2.3s3.4-0.9,4.3-2.3l3-4.7c1.2-1.8,3.2-2.9,5.4-2.9c2.2,0,4.2,1.1,5.4,2.9l3,4.7
	c0.9,1.5,2.5,2.3,4.3,2.3c1.7,0,3.3-0.8,4.3-2.3v-0.1l3-4.7c0.1-0.2,0.3-0.4,0.5-0.7c0.2-0.2,0.4-0.4,0.6-0.6c0.6-0.6,1.3-1,2-1.3
	c0.2-0.1,0.5-0.2,0.8-0.3c0.3-0.1,0.7-0.1,1-0.2c0.2,0,0.4,0,0.6,0c2.2,0,4.2,1.1,5.4,2.9l3,4.7l0,0l0,0c0.9,1.4,2.5,2.3,4.3,2.3
	s3.4-0.9,4.3-2.3l3-4.7c1.2-1.8,3.2-2.9,5.4-2.9c2.2,0,4.2,1.1,5.4,2.9l3,4.7c0.9,1.5,2.5,2.3,4.3,2.3s3.4-0.9,4.3-2.3l3-4.7
	c1.2-1.8,3.2-2.9,5.4-2.9c2.2,0,4.2,1.1,5.4,2.9l3,4.7c0.9,1.5,2.5,2.3,4.3,2.3s3.4-0.9,4.3-2.3l3-4.7c1.2-1.8,3.2-2.9,5.4-2.9
	c2.2,0,4.2,1.1,5.4,2.9l4.7,7.4C173.1,34.7,172.8,35.3,172.3,35.3z M172.1,14.2c-0.2,0-0.4-0.1-0.5-0.3l-4.7-7.4
	c-1-1.6-2.8-2.5-4.8-2.3c-1.6,0.2-3,1.1-3.9,2.4l-2.9,4.6c-1.2,1.8-3.2,2.9-5.4,2.9c-2.2,0-4.2-1.1-5.4-2.9l-2.9-4.6
	c-0.8-1.3-2.3-2.3-3.8-2.5c-2-0.2-3.8,0.7-4.8,2.3l-3,4.7c-1.2,1.8-3.2,2.9-5.4,2.9c-2.2,0-4.2-1.1-5.4-2.9l-2.9-4.6
	c-0.9-1.3-2.3-2.3-3.8-2.5c-2-0.2-3.8,0.7-4.8,2.3l-3,4.7c-1.2,1.8-3.2,2.9-5.4,2.9c-0.9,0-1.7-0.2-2.5-0.5
	c-1.1-0.5-2.1-1.3-2.8-2.3L93.9,11l0,0l-3-4.7c-0.1-0.1-0.1-0.2-0.2-0.2c-0.5-0.8-1.2-1.3-2.1-1.7c-0.1-0.1-0.2-0.1-0.4-0.1
	c-0.2-0.1-0.4-0.1-0.6-0.2S87.3,4,87.1,4c0,0,0,0-0.1,0c-0.4,0-0.7,0-1.1,0c-0.1,0-0.2,0-0.3,0.1c-0.1,0-0.3,0.1-0.4,0.1
	c-0.2,0-0.3,0.1-0.5,0.1c-0.2,0.1-0.3,0.1-0.5,0.2s-0.4,0.2-0.6,0.4c-0.4,0.3-0.8,0.6-1.1,1c-0.1,0.1-0.2,0.2-0.2,0.3
	c-0.1,0.1-0.1,0.1-0.1,0.2l-0.1,0.1l-3,4.7c-0.7,1.1-1.7,1.9-2.8,2.4c-0.8,0.3-1.6,0.5-2.5,0.5c-2.2,0-4.2-1.1-5.4-2.9l-2.9-4.6
	c-0.9-1.3-2.3-2.3-3.8-2.5c-2-0.2-3.8,0.7-4.8,2.3l-3,4.7c-1.2,1.8-3.2,2.9-5.4,2.9c-2.2,0-4.2-1.1-5.4-2.9l-2.9-4.6
	C39.4,5.2,38,4.2,36.4,4c-2-0.2-3.8,0.7-4.8,2.3l-3,4.7c-1.2,1.8-3.2,2.9-5.4,2.9S19,12.8,17.8,11l-2.9-4.6
	c-0.9-1.3-2.3-2.3-3.8-2.5c-2-0.2-3.8,0.7-4.8,2.3l-4.7,7.4c-0.1,0.2-0.3,0.3-0.6,0.3c-0.4,0-0.6-0.3-0.6-0.6c0-0.1,0-0.2,0.1-0.3
	l4.7-7.4c1.2-1.8,3.2-2.9,5.4-2.9s4.2,1.1,5.4,2.9l3,4.7c0.9,1.5,2.5,2.4,4.3,2.4c1.7,0,3.4-0.9,4.3-2.4l3-4.7
	c1.2-1.8,3.2-2.9,5.4-2.9s4.2,1.1,5.4,2.9l3,4.7c0.9,1.5,2.5,2.4,4.3,2.4s3.4-0.9,4.3-2.4l3-4.7c1.2-1.8,3.2-2.9,5.4-2.9
	c2.2,0,4.2,1.1,5.4,2.9l3,4.7c0.9,1.5,2.5,2.4,4.3,2.4c1.7,0,3.3-0.9,4.2-2.3v-0.1l3-4.7c0.3-0.5,0.6-0.9,1-1.2
	c0.2-0.2,0.4-0.4,0.6-0.5c0.4-0.3,0.9-0.6,1.4-0.8c0.7-0.3,1.5-0.4,2.4-0.4c1.4,0,2.7,0.4,3.8,1.2C90.7,4,90.8,4.1,91,4.3
	c0.1,0.1,0.2,0.2,0.3,0.3c0.3,0.3,0.6,0.7,0.8,1.1l3,4.7l0,0v0.1c0.9,1.4,2.5,2.3,4.2,2.3c1.8,0,3.4-0.9,4.3-2.4l3-4.7
	c1.2-1.8,3.2-2.9,5.4-2.9c2.2,0,4.2,1.1,5.4,2.9l3,4.7c0.9,1.5,2.5,2.4,4.3,2.4c1.7,0,3.4-0.9,4.3-2.4l3-4.7
	c1.2-1.8,3.2-2.9,5.4-2.9c2.2,0,4.2,1.1,5.4,2.9l3,4.7c0.9,1.5,2.5,2.4,4.3,2.4s3.4-0.9,4.3-2.4l3-4.7c1.2-1.8,3.2-2.9,5.4-2.9
	c2.2,0,4.2,1.1,5.4,2.9l4.7,7.4C172.9,13.7,172.6,14.2,172.1,14.2z M10.1,44.6c2.2,0,4.2,1.1,5.4,2.9l3,4.7c0.9,1.5,2.5,2.3,4.3,2.3
	s3.4-0.9,4.3-2.3l3-4.7c1.2-1.8,3.2-2.9,5.4-2.9s4.2,1.1,5.4,2.9l3,4.7c0.9,1.5,2.5,2.3,4.3,2.3s3.4-0.9,4.3-2.3l3-4.7
	c1.2-1.8,3.2-2.9,5.4-2.9c2.2,0,4.2,1.1,5.4,2.9l3,4.7c0.9,1.5,2.5,2.3,4.3,2.3c1.7,0,3.3-0.9,4.2-2.3v-0.1l3-4.7
	c0.1-0.2,0.3-0.4,0.5-0.6l0,0c0.2-0.2,0.4-0.4,0.6-0.6c1.2-1.1,2.7-1.7,4.4-1.7c1.7,0,3.2,0.6,4.4,1.7c0.4,0.4,0.7,0.8,1,1.2l3,4.7
	c0,0,0,0,0,0.1c0.9,1.4,2.5,2.3,4.2,2.3c1.8,0,3.4-0.9,4.3-2.3l3-4.7c1.2-1.8,3.2-2.9,5.4-2.9c2.2,0,4.2,1.1,5.4,2.9l3,4.7
	c0.9,1.5,2.5,2.3,4.3,2.3c1.7,0,3.4-0.9,4.3-2.3l3-4.7c1.2-1.8,3.2-2.9,5.4-2.9c2.2,0,4.2,1.1,5.4,2.9l3,4.7
	c0.9,1.5,2.5,2.3,4.3,2.3s3.4-0.9,4.3-2.3l3-4.7c1.2-1.8,3.2-2.9,5.4-2.9c2.2,0,4.2,1.1,5.4,2.9l4.7,7.4c0.3,0.4,0,1-0.5,1
	c-0.2,0-0.4-0.1-0.6-0.3l-4.7-7.4c-1-1.6-2.8-2.5-4.8-2.3c-1.6,0.2-3,1.1-3.9,2.4l-2.9,4.6c-1.2,1.8-3.2,2.9-5.4,2.9
	c-2.2,0-4.2-1.1-5.4-2.9l-2.9-4.6c-0.8-1.3-2.3-2.3-3.8-2.5c-2-0.2-3.8,0.7-4.8,2.3l-3,4.7c-1.2,1.8-3.2,2.9-5.4,2.9
	c-2.2,0-4.2-1.1-5.4-2.9l-2.9-4.6c-0.9-1.3-2.3-2.3-3.8-2.5c-2-0.2-3.8,0.7-4.8,2.3l-3,4.7c-1.2,1.8-3.2,2.9-5.4,2.9
	c-0.9,0-1.7-0.2-2.5-0.5c-1.2-0.5-2.2-1.3-2.9-2.4l0,0l-2.9-4.6c0-0.1-0.1-0.1-0.1-0.1c-0.5-0.8-1.2-1.4-2.1-1.8
	c-0.2-0.1-0.3-0.2-0.5-0.2c-0.2-0.1-0.3-0.1-0.5-0.2c-0.1,0-0.1,0-0.2,0s-0.2-0.1-0.4-0.1c0,0,0,0-0.1,0c-0.6-0.1-1.1,0-1.7,0.1
	c-0.2,0-0.3,0.1-0.5,0.1h-0.1c-0.2,0.1-0.3,0.1-0.5,0.2s-0.4,0.2-0.6,0.4c-0.4,0.3-0.8,0.6-1.1,1c-0.1,0.1-0.2,0.2-0.2,0.3
	c-0.1,0.1-0.1,0.1-0.1,0.2L82,48.1l-2.9,4.6c-0.7,1.1-1.7,1.9-2.9,2.4c-0.8,0.3-1.6,0.5-2.5,0.5c-2.2,0-4.2-1.1-5.4-2.9l-2.9-4.6
	c-0.9-1.3-2.3-2.3-3.8-2.5c-2-0.2-3.8,0.7-4.8,2.3l-3,4.7c-1.2,1.8-3.2,2.9-5.4,2.9c-2.2,0-4.2-1.1-5.4-2.9L40.1,48
	c-0.9-1.3-2.3-2.3-3.8-2.5c-2-0.2-3.8,0.7-4.8,2.3l-3,4.7c-1.2,1.8-3.2,2.9-5.4,2.9s-4.2-1.1-5.4-2.9l-3.2-4.1
	c-0.8-1.3-2.3-2.3-3.8-2.5c-2-0.2-3.8,0.7-4.8,2.3l-4.7,7.4c-0.1,0.2-0.3,0.3-0.6,0.3c-0.4,0-0.6-0.3-0.6-0.6c0-0.1,0-0.2,0.1-0.3
	l4.7-7.4C5.9,45.7,7.9,44.6,10.1,44.6z"/>
</svg>
